<svg width="36" height="36" viewBox="0 0 36 36" fill="none" xmlns="http://www.w3.org/2000/svg">
<path d="M11.2311 27.4009L3.83562 31.939L4.09455 34.3124H4.58157C5.67931 34.3124 6.65379 34.9921 7.001 36H2.3508L1.50653 30.9997C1.43183 30.5576 1.63541 30.1147 2.02455 29.8723L7.50145 26.4606C7.68687 26.3453 7.80822 26.1549 7.83169 25.9429L7.98315 24.5789C8.90714 25.591 10.0145 26.5547 11.2311 27.4009ZM27.6362 27.9844L30.5427 34.3126L31.9958 36H34.9022C34.5326 35.2743 33.8759 34.7233 33.0811 34.472L32.5771 34.3126L30.688 27.9844L30.2778 25.2257C29.3822 25.8291 28.4051 26.3256 27.3645 26.694L27.6362 27.9844ZM35.8392 17.891L34.9022 17.4374V16.5937L35.4836 15.75L31.2413 13.9254C30.6543 13.673 29.9656 13.8233 29.5477 14.2953L26.7644 17.4376C26.7644 17.4376 15.6203 15.3106 13.8371 14.9191C10.1084 14.1006 7.11261 13.1741 5.04142 11.6439C2.88151 10.0477 1.78082 8.014 1.7696 5.59914C1.78407 3.43986 3.6037 1.68743 5.83845 1.68743C8.08206 1.68743 9.9073 3.45371 9.9073 5.625C9.9073 6.091 10.2976 6.46871 10.7792 6.46871C11.2607 6.46871 11.6511 6.091 11.6511 5.625C11.6512 2.52329 9.0437 0 5.83845 0C3.04582 0 0.617381 2.01743 0.108368 4.67614C-0.43445 7.51186 1.01863 11.4961 5.44975 13.9296C6.66264 14.5957 8.81384 15.4454 9.32492 15.6299C7.92351 16.5427 7.00085 18.091 7.00085 19.8487C7.00085 20.8194 7.27042 21.7333 7.77175 22.4964C9.36227 24.917 12.6629 26.9966 12.6629 26.9966C12.6647 26.9977 12.6664 26.999 12.6682 27.0001L9.90716 34.3127L11.6512 36H15.7202C15.373 34.9923 14.3985 34.3124 13.3008 34.3124H12.5231L16.5627 27.5366C16.762 27.2024 16.7704 26.793 16.585 26.4514L14.7352 23.0424C14.7352 23.0424 17.2592 25.785 21.6875 26.2441L19.7891 34.3126L20.9516 36H23.8581C23.4822 35.2727 22.857 34.6944 22.0891 34.3641L21.9689 34.3126L24.5847 27.9844L26.7583 25.7073C29.4907 24.7926 31.7606 22.92 33.1319 20.5979L34.983 19.8813C35.3005 19.7584 35.5459 19.5064 35.6541 19.1926L35.985 18.2316C36.0308 18.0987 35.9685 17.9536 35.8392 17.891Z" fill="black"/>
</svg>
