<svg width="36" height="36" viewBox="0 0 36 36" fill="none" xmlns="http://www.w3.org/2000/svg">
<path d="M34.8739 19.1611C32.9703 15.7126 27.9296 10.9468 24.1487 10.6503C24.2546 10.1463 24.3119 9.64084 24.3119 9.19397C24.3119 6.47568 22.7338 4.13636 20.4862 3.12449L21.6091 2.10717C22.088 1.67332 22.14 0.915513 21.7253 0.41443C21.3106 -0.0865797 20.5862 -0.14094 20.1072 0.29291L18 2.2022L15.8927 0.293058C15.4139 -0.140793 14.6895 -0.0864325 14.2747 0.414577C13.86 0.915513 13.912 1.67339 14.3908 2.10731L15.5137 3.12463C13.2661 4.13643 11.6881 6.47583 11.6881 9.19412C11.6881 9.64099 11.7453 10.1465 11.8513 10.6504C8.07038 10.947 3.02954 15.7127 1.12611 19.1613C-1.18126 23.3431 0.197566 27.3429 3.98122 29.6283C6.39589 31.0868 9.18427 31.426 11.5302 29.8692C12.9136 31.4827 14.7991 32.5252 16.8529 32.81V34.8C16.8529 35.4627 17.3665 36 17.9999 36C18.6334 36 19.1469 35.4627 19.1469 34.8V32.81C21.2008 32.5252 23.0862 31.4827 24.4696 29.8692C26.8156 31.4261 29.6041 31.0869 32.0186 29.6283C35.8023 27.3429 37.1813 23.343 34.8739 19.1611ZM16.4684 17.6543C17.5752 17.6543 18.4247 17.6543 19.5315 17.6543C19.5582 18.4197 19.6348 19.2293 19.7577 20.0543C19.2477 20.0543 16.7518 20.0543 16.2421 20.0543C16.3651 19.2292 16.4418 18.4196 16.4684 17.6543ZM12.458 24.9917H12.4446C10.7181 28.7378 8.11327 29.3528 5.1283 27.5499C2.40496 25.9049 1.46214 23.3529 3.11286 20.3611C5.29993 16.3988 11.2029 11.899 13.1196 13.2889C14.9186 14.6065 14.276 21.0507 12.458 24.9917ZM14.9608 24.9917C15.2562 24.2255 15.5124 23.4161 15.7258 22.5917C16.2088 22.5917 19.8065 22.5917 20.2741 22.5917C20.4875 23.416 20.7437 24.2255 21.0391 24.9917C19.1519 24.9917 16.8481 24.9917 14.9608 24.9917ZM30.8717 27.5499C27.8867 29.3529 25.2819 28.7378 23.5554 24.9917H23.5419C21.7241 21.0507 21.0814 14.6064 22.8803 13.2889C24.797 11.899 30.7 16.3988 32.887 20.3611C34.5378 23.3528 33.5951 25.9048 30.8717 27.5499Z" fill="black"/>
</svg>
