<svg width="36" height="36" viewBox="0 0 36 36" fill="none" xmlns="http://www.w3.org/2000/svg">
<g clip-path="url(#clip0_64_269)">
<path d="M27.9082 5.25777C27.4795 2.26848 25.4495 0 23.0001 0C20.5482 0 18.5176 2.2733 18.0913 5.26661C7.92196 6.50571 -0.0311582 17.5275 9.17752e-05 30.9359C0.00696677 33.742 1.81759 36 4.00009 36H23.0001C23.5526 36 24.0001 35.4246 24.0001 34.7143C24.0001 33.2944 23.1045 32.1429 22.0001 32.1429H17.032L19.2695 28.2592C20.7782 25.3479 19.9163 21.1653 17.1626 19.6931C15.6695 18.8952 13.9407 19.3195 12.6476 20.5674L10.6001 22.5434C10.1588 22.9701 9.53197 22.8576 9.19947 22.2871C8.86822 21.7181 8.95697 20.9121 9.39884 20.4862L11.5726 18.3897C13.8751 16.1671 17.0901 16.1703 19.3932 18.3897C20.0726 19.0446 22.2601 21.5285 21.9432 25.8798L29.3513 36H35.0001C35.5526 36 36.0001 35.4246 36.0001 34.7143C36.0001 33.2944 35.1045 32.1429 34.0001 32.1429H30.6482L24.4907 23.7311L34.1432 16.7681C34.7065 16.362 35.1754 15.7702 35.5018 15.0537C35.8281 14.3372 36.0001 13.5219 36.0001 12.6916C36.0001 10.972 35.2676 9.40098 34.0951 8.57491C31.5601 6.78938 27.9082 5.25777 27.9082 5.25777Z" fill="black"/>
</g>
<defs>
<clipPath id="clip0_64_269">
<rect width="36" height="36" fill="white"/>
</clipPath>
</defs>
</svg>
