<svg width="36" height="36" viewBox="0 0 36 36" fill="none" xmlns="http://www.w3.org/2000/svg">
<g clip-path="url(#clip0_31_558)">
<path d="M2.28911 16.6023C2.33685 16.6857 2.37936 16.7716 2.4337 16.8781C2.45401 16.9179 2.43726 16.9324 2.39583 16.9105C1.97874 16.6903 1.59272 16.4864 1.20858 16.2833C1.16715 16.2615 1.10676 16.2693 1.07361 16.3011C1.06237 16.3117 1.05135 16.3224 1.04011 16.333C1.00689 16.3647 1.00057 16.4205 1.02559 16.458C1.21187 16.7387 1.37953 17.034 1.60455 17.285C1.82157 17.5268 2.09186 17.7411 2.37586 17.916C3.25087 18.4548 4.12507 18.9988 5.03874 19.4772C5.41387 19.6734 5.88772 19.7099 6.3182 19.8139C9.59677 20.6064 8.77173 20.2784 10.9221 22.2083C11.104 22.3716 11.233 22.6211 11.293 22.8513C11.3342 23.009 11.2495 23.2209 11.1578 23.3771C10.6913 24.1721 9.92475 24.7096 9.20146 25.2841C9.14988 25.3251 9.14908 25.428 9.13778 25.5039C9.05822 26.04 8.9531 26.575 8.91578 27.1137C8.89439 27.4237 8.93804 27.7536 9.03629 28.0507C9.16878 28.4507 9.37188 28.8323 9.56422 29.2133C9.76812 29.6169 9.99173 29.724 10.4867 29.6491C10.5336 29.6421 10.5696 29.5994 10.5688 29.5553C10.5564 28.7119 11.1323 28.1549 11.7464 27.5961C12.4132 26.9895 13.1927 26.959 14.0158 27.0721C14.0631 27.0787 14.1141 27.118 14.1286 27.1598C14.4623 28.1186 14.2049 29.083 14.1799 30.0433C14.1668 30.5468 14.1415 31.0528 14.1777 31.5543C14.2296 32.2695 14.0054 32.889 13.5378 33.4445C13.2893 33.7396 13.0511 33.7721 12.8006 33.4823C12.5824 33.2298 12.4243 32.9258 12.2812 32.6274C12.1185 32.2884 11.9146 32.2035 11.6822 32.4076C11.6476 32.438 11.6591 32.4778 11.7025 32.4961C11.9563 32.6041 12.0441 32.7516 11.8378 33.0341C11.776 33.1184 11.8358 33.3572 11.9286 33.4447C12.153 33.6557 12.4194 33.8285 12.6963 34.0293C12.7336 34.0565 12.7259 34.0861 12.679 34.0932C12.0134 34.1948 11.4446 34.0097 10.9073 33.7002C10.3717 33.3917 9.88655 33.575 9.78998 34.0985C9.78204 34.1418 9.81224 34.1596 9.85333 34.1376C9.99382 34.0622 10.1417 33.983 10.2905 33.9031C10.3316 33.8811 10.3901 33.875 10.4211 33.8894C10.4521 33.904 10.4661 33.9502 10.4573 33.9933C10.3948 34.3036 10.6006 34.366 10.8755 34.4008C11.1293 34.4327 11.3735 34.5257 11.6259 34.5739C11.8389 34.6147 12.0561 34.6365 12.2897 34.72C12.3342 34.7357 12.3325 34.761 12.287 34.7737C12.1424 34.8145 11.9983 34.856 11.8528 34.8949C11.4959 34.9904 11.1273 35.0592 10.7841 35.1859C10.4982 35.2916 10.3003 35.4866 10.3229 35.7901C10.3262 35.8339 10.3607 35.8945 10.3945 35.9257C10.4148 35.9445 10.4351 35.9633 10.4554 35.982C10.4892 36.0132 10.5215 36.003 10.5276 35.9592C10.5597 35.7211 10.5803 35.6085 11.0509 35.661C11.6246 35.7252 12.3122 35.4337 12.847 35.1378C13.4074 34.828 13.9146 34.6969 14.5345 34.8638C14.8495 34.9484 15.1801 34.9859 15.5055 35.0338C15.5856 35.0455 15.7067 35.0432 15.7525 34.9981C16.1435 34.6145 16.4138 34.791 16.6643 35.1528C16.69 35.1897 16.7216 35.1867 16.7317 35.1436C16.819 34.7755 16.5918 34.5841 16.3183 34.4941C16.0485 34.4054 15.7094 34.3585 15.4427 34.4287C14.9488 34.5588 14.6064 34.415 14.3188 34.1551C14.2848 34.1245 14.2793 34.0682 14.3048 34.0309C14.9315 33.1236 15.5418 32.2404 16.1517 31.3576C16.1775 31.3206 16.1767 31.2699 16.1498 31.2448C16.1232 31.2197 16.1369 31.2136 16.1803 31.2317C16.2604 31.2648 16.3474 31.3008 16.4612 31.348C16.5048 31.366 16.5388 31.3449 16.5378 31.3008C16.5323 31.1069 16.5273 30.9381 16.5224 30.7631C16.521 30.719 16.5509 30.7049 16.589 30.7312C16.6777 30.7928 16.7613 30.8508 16.844 30.9084C16.8821 30.9348 16.9507 30.9489 16.9974 30.9401C16.999 30.9399 17.0007 30.9394 17.0023 30.939C17.049 30.93 17.0818 30.8871 17.0761 30.8435C17.0438 30.6037 17.0114 30.3636 16.9787 30.1207C16.973 30.0771 17.0064 30.046 17.0542 30.0469C17.4408 30.055 17.6702 29.8327 17.5802 29.5178C17.4348 29.011 17.2309 28.5187 17.0836 28.0123C17.0278 27.8215 17.0358 27.6148 17.0243 27.4047C17.0218 27.3608 17.0559 27.3358 17.1014 27.3487C17.1406 27.3599 17.1787 27.3707 17.2204 27.3824C17.266 27.3953 17.2926 27.3713 17.2803 27.3289C17.2603 27.2612 17.2419 27.1996 17.2238 27.1387C17.2112 27.0961 17.2397 27.0629 17.2872 27.0645C17.5083 27.0709 17.7188 27.0769 17.9509 27.0836C17.9986 27.0848 18.0477 27.1203 18.0603 27.1629C18.5062 28.6353 18.8855 30.1019 17.6194 31.4691C17.5884 31.5026 17.5311 31.5085 17.4923 31.4829C17.3244 31.3721 17.1271 31.242 16.8667 31.0704C16.828 31.0448 16.7981 31.0597 16.8001 31.1036C16.8061 31.2536 16.805 31.3079 16.8143 31.3601C16.8428 31.5161 16.952 31.7731 16.8966 31.8074C16.749 31.8986 16.555 31.9255 16.3704 31.9658C16.3241 31.9759 16.2828 31.9498 16.2782 31.906C16.2754 31.8824 16.2729 31.8588 16.2705 31.8352C16.2656 31.7914 16.236 31.7822 16.2041 31.8149C16.13 31.8907 16.0524 31.9703 15.9583 32.0665C15.9265 32.0991 15.9382 32.1339 15.9844 32.144C16.1772 32.1864 16.338 32.2213 16.5189 32.2611C16.5652 32.2713 16.5754 32.305 16.5354 32.3289C16.1704 32.5439 15.5514 32.2031 15.4161 32.8402C15.407 32.8833 15.4413 32.916 15.4888 32.9135C15.8724 32.8937 16.2664 32.9193 16.6168 32.8168C17.3535 32.6016 17.913 32.7557 18.4031 33.2912C18.6006 33.507 18.7936 33.818 19.2586 33.6195C19.302 33.601 19.3333 33.619 19.3305 33.6628C19.3214 33.8109 19.3138 33.9313 19.3075 34.0378C19.3047 34.0816 19.3382 34.1032 19.3783 34.0793C19.6301 33.9301 19.7108 33.625 19.4861 33.3398C19.3432 33.1586 19.1023 33.0392 18.8937 32.9079C18.7417 32.8123 18.5507 32.7649 18.4113 32.6579C17.9232 32.283 17.9501 32.1628 18.3987 31.7645C18.8495 31.3643 19.2487 30.9144 19.677 30.4919C19.7363 30.4334 19.8197 30.3958 19.95 30.3208C19.9905 30.2974 20.0307 30.2429 20.0406 30.1999C20.0678 30.082 20.1042 29.9215 20.1441 29.7483C20.1539 29.7053 20.1913 29.6935 20.2275 29.7222C20.3068 29.7853 20.3798 29.8434 20.4618 29.9085C20.498 29.9371 20.5359 29.9257 20.5488 29.8835C20.5666 29.8256 20.5817 29.7815 20.5782 29.7384C20.5477 29.3708 20.7378 29.0892 20.962 28.8103C21.0078 28.7533 20.9733 28.629 20.9524 28.5402C20.8945 28.2933 20.8267 28.0484 20.7578 27.787C20.7466 27.7442 20.7737 27.7219 20.8185 27.7371C20.881 27.7584 20.9455 27.7802 21.0264 27.8076C21.0712 27.8228 21.0961 27.8008 21.0824 27.7587C20.9891 27.4745 20.9073 27.2258 20.8165 26.9497C20.8025 26.9075 20.822 26.8954 20.8593 26.9225C20.9068 26.9567 20.9466 26.9856 20.9834 27.0122C21.021 27.0394 21.0731 27.0545 21.1 27.0459C21.1269 27.0376 21.1395 26.9957 21.1283 26.9531C21.0786 26.7625 21.0287 26.5716 20.9787 26.3799C20.9674 26.3371 20.9908 26.2829 21.0311 26.2595C21.3464 26.0796 21.7011 25.9383 21.8097 25.5291C21.8328 25.4424 22.0894 25.2875 22.1865 25.2414C22.8316 24.9346 23.5164 24.6917 24.2068 24.4788C24.3902 24.4223 24.6436 24.5254 24.8544 24.5861C25.5626 24.7901 26.2542 25.0553 26.9748 25.2055C27.534 25.3221 28.0792 25.1565 28.5599 24.8348C29.1507 24.4396 29.7763 24.0872 30.3533 23.6762C31.0409 23.1865 31.692 22.6528 32.361 22.1407C32.7658 21.8306 33.182 21.5332 33.5793 21.2153C33.9755 20.8981 34.3613 20.5691 34.7369 20.2311C34.867 20.1143 34.9513 19.9543 35.0596 19.8158C35.1702 19.6741 35.275 19.5273 35.3993 19.3963C35.5395 19.2484 35.7326 19.1346 35.8375 18.9704C35.9026 18.8684 35.8929 18.7259 35.8639 18.5853C35.8548 18.542 35.8642 18.4758 35.8858 18.4364C36.0946 18.0554 36.0263 17.9839 35.6041 17.6728C35.159 17.3451 34.7282 17.3349 34.2432 17.5271C32.5145 18.2111 30.7837 18.89 29.0564 19.5771C26.8232 20.4652 26.8218 20.5171 24.4152 20.4124C23.0185 20.3516 21.6327 20.3561 20.25 20.475C20.2025 20.4791 20.1971 20.4641 20.2376 20.441C20.4807 20.3029 20.7189 20.1574 20.9521 20.0045C20.9911 19.9789 21.0577 19.9441 21.1014 19.9264C21.5062 19.7629 21.9053 19.586 22.3112 19.4239C22.4377 19.3735 22.5825 19.3557 22.7211 19.3382C23.3711 19.2568 23.8927 19.0082 24.1742 18.4246C24.2044 18.3622 24.2828 18.3181 24.3432 18.2702C24.4623 18.1757 24.6388 18.1059 24.6939 17.9873C24.8182 17.7188 24.9321 17.4759 25.2301 17.3131C25.3006 17.2749 25.2652 17.0708 25.26 16.8842C25.2586 16.8401 25.2968 16.7932 25.3398 16.7744C25.5522 16.6816 25.6354 16.5216 25.5555 16.1953C25.5004 15.97 25.8008 15.6888 25.8518 15.4181C25.9331 14.9868 26.1394 14.5606 25.91 14.0985C25.8038 13.884 25.834 13.6122 25.7983 13.3671C25.7166 12.8061 25.6724 12.2362 25.5303 11.6883C25.4735 11.4695 25.263 11.2844 25.1212 11.1225C25.0913 11.0882 25.0962 11.0337 25.1297 11.0028C25.2496 10.892 25.3739 10.7772 25.4987 10.6618C25.5324 10.6306 25.5324 10.5801 25.4987 10.549C25.3609 10.4215 25.2216 10.2929 25.0726 10.1551C25.0388 10.1239 25.0437 10.0788 25.0838 10.0551C25.2043 9.98418 25.3521 9.90228 25.4784 9.79808C25.5632 9.72811 25.6375 9.6021 25.6339 9.50399C25.6318 9.44769 25.4709 9.37648 25.3697 9.34752C25.2182 9.3039 25.0597 9.2811 24.8796 9.24916C24.8328 9.24084 24.8264 9.21269 24.8648 9.18684C25.1631 8.98732 25.4369 8.80426 25.7086 8.62251C25.7472 8.5966 25.7766 8.54136 25.7741 8.49904C25.7716 8.45673 25.7324 8.41335 25.6863 8.40217C25.4298 8.34003 25.1716 8.27746 24.8969 8.21079C24.8508 8.1996 24.8426 8.16717 24.8791 8.13877C25.0736 7.9861 25.2775 7.83349 25.4673 7.66721C25.7203 7.44563 25.6904 7.27072 25.3524 7.19062C25.0975 7.13004 24.8069 7.11481 24.55 7.16247C24.0504 7.25499 23.5614 7.39803 23.0316 7.53312C22.9858 7.5448 22.9792 7.53262 23.017 7.50597C25.3702 5.8548 25.4985 5.76078 25.534 5.32266C25.5376 5.27879 25.5049 5.25853 25.4619 5.27754C24.2003 5.83479 22.9257 6.39781 21.651 6.9609C21.6079 6.97991 21.6002 6.96997 21.6342 6.93909C22.8843 5.79067 24.279 4.77858 25.0966 3.25138C25.1178 3.2118 25.103 3.20042 25.064 3.22578C23.7412 4.09433 22.4603 4.93498 21.1807 5.77545C21.1417 5.80105 21.0925 5.80739 21.0706 5.78937C21.0487 5.7716 21.0547 5.72903 21.084 5.6943C21.4426 5.2709 21.8095 4.85333 22.1544 4.42061C22.6716 3.77184 23.1922 3.12362 23.6685 2.44925C23.8438 2.20101 23.9222 1.8948 24.0337 1.60804C24.0499 1.56672 24.0364 1.50818 24.0027 1.47699C23.969 1.4458 23.9146 1.44629 23.8814 1.47805C22.7139 2.59024 21.5464 3.70268 20.3789 4.81487C20.3457 4.84656 20.3149 4.86328 20.3098 4.85265C20.3049 4.84203 20.3205 4.80269 20.3451 4.76491C20.9546 3.82434 21.5782 2.89142 22.1649 1.93898C22.5158 1.36956 22.4744 0.737062 22.3638 0.11159C22.3583 0.0801484 22.3315 0.0517517 22.2807 0.0139724C22.2436 -0.0136786 22.2085 0.00129642 22.2031 0.0449167C21.991 1.72249 20.6135 2.68531 19.5286 3.83913C19.4973 3.87231 19.4875 3.86672 19.5061 3.82621C20.0165 2.71426 20.4365 1.59698 20.0732 0.448062C20.0599 0.405685 20.034 0.404939 20.0173 0.44626C19.7388 1.12467 19.4921 1.87715 19.1105 2.5652C18.7217 3.26617 18.1984 3.90375 17.6958 4.55682C17.6681 4.59286 17.648 4.58621 17.6511 4.5424C17.7366 3.30345 17.9525 2.06145 17.1346 0.942425C17.108 0.905888 17.0885 0.912537 17.0929 0.956344C17.1168 1.19843 17.1497 1.44058 17.1539 1.68291C17.1714 2.70588 16.9234 3.67024 16.5167 4.62703C15.9509 5.95875 15.409 7.30694 15.2507 8.75076C15.2315 8.92518 15.1794 9.0963 15.1291 9.30496C15.1187 9.34802 15.0907 9.35237 15.066 9.31484C14.9469 9.13433 14.841 8.97358 14.7052 8.76779C14.6806 8.73025 14.6468 8.73305 14.6282 8.77363C14.5571 8.92673 14.482 9.03752 14.4907 9.14198C14.5283 9.59775 14.5535 10.0627 14.674 10.5028C14.8699 11.2173 15.1446 11.9132 15.3702 12.621C15.4045 12.7287 15.4201 12.837 15.4786 12.9174C15.5052 12.9538 15.5236 13.0053 15.5077 13.0416C15.4917 13.0778 15.4788 13.107 15.4788 13.107C15.464 13.1491 15.4492 13.1911 15.4341 13.2335C15.4193 13.2753 15.3713 13.2966 15.3268 13.2809C15.2517 13.2543 15.177 13.2274 15.1063 13.1978C14.9737 13.1421 14.7627 13.1435 14.7054 13.0543C14.3947 12.5696 13.9768 12.5936 13.4846 12.7744C13.4404 12.7907 13.4114 12.7696 13.4199 12.7263C13.4824 12.4068 13.5571 12.1136 13.5771 11.8172C13.5875 11.6628 13.5195 11.5038 13.4709 11.3461C13.4577 11.3038 13.4122 11.2802 13.3667 11.2931C13.1957 11.3423 13.0226 11.3864 12.8601 11.4534C12.7688 11.4909 12.6936 11.5629 12.588 11.6478C12.5521 11.6767 12.5207 11.6632 12.5221 11.6194C12.538 11.068 12.8431 10.5417 12.4947 10.0057C12.47 9.96796 12.4179 9.96138 12.3808 9.98903C12.2278 10.1039 12.0897 10.2076 11.9369 10.3224C11.8999 10.3503 11.8694 10.3371 11.8689 10.2929C11.8642 9.90632 11.8598 9.5486 11.8554 9.19268C11.8549 9.14856 11.8208 9.1009 11.7794 9.08618C11.738 9.07151 11.6773 9.08468 11.6436 9.11588C11.3629 9.37524 11.0819 9.6346 10.8012 9.89414C10.7675 9.92534 10.7271 9.93851 10.7113 9.92385C10.6954 9.90918 10.6904 9.86227 10.7006 9.81914C10.812 9.34274 10.9234 8.8664 11.0351 8.39005C11.0452 8.34699 11.0203 8.29374 10.9794 8.27094C10.9651 8.26311 10.9509 8.25497 10.9365 8.24708C10.8957 8.22427 10.8337 8.22937 10.7969 8.25745C10.604 8.40577 10.3954 8.54167 10.2387 8.71733C9.78521 9.22636 9.35749 9.75471 8.92062 10.2762C8.8915 10.311 8.83884 10.3251 8.80347 10.3074C8.7681 10.2896 8.75303 10.2422 8.76944 10.2009C8.83911 10.0267 8.90361 9.85028 8.98673 9.68195C9.27262 9.10519 9.57773 8.53626 9.85266 7.95522C9.90558 7.84319 9.89186 7.70425 9.85757 7.55543C9.84768 7.5123 9.80625 7.49789 9.76758 7.52374C8.7227 8.22371 8.31112 9.38381 7.37929 10.1951C7.34472 10.2252 7.32603 10.2146 7.33759 10.172C7.40128 9.93975 7.44903 9.70121 7.54722 9.48211C7.88798 8.72255 8.26257 7.97597 8.60057 7.21566C8.66729 7.06554 8.66123 6.88814 8.63844 6.70813C8.63292 6.66451 8.59264 6.64425 8.55034 6.66475C7.92665 6.97047 7.60949 7.50491 7.23524 7.98051C6.86838 8.44647 6.55284 8.94668 6.21779 9.43421C6.1923 9.47149 6.14893 9.4933 6.12122 9.48317C6.09351 9.47298 6.08221 9.43042 6.09573 9.38835C6.4796 8.19302 6.86347 6.99769 7.24734 5.80235C7.26106 5.76004 7.23638 5.71163 7.193 5.69386C7.17928 5.68827 7.1653 5.68268 7.15158 5.67709C7.10793 5.65931 7.04236 5.66721 7.00584 5.6956C5.79909 6.63288 5.52114 8.13045 4.56159 9.26389C4.53221 9.29862 4.50947 9.29048 4.51001 9.24636C4.51277 9.01894 4.49246 8.78674 4.54787 8.571C4.78003 7.66696 5.05636 6.77256 5.28569 5.86822C5.34305 5.64235 5.31642 5.3984 5.31615 5.1601C5.31615 5.11599 5.28078 5.06858 5.23572 5.0541C5.23438 5.0536 5.23276 5.0531 5.23108 5.05261C5.18609 5.03819 5.12435 5.05335 5.09201 5.08585C4.94466 5.23386 4.78278 5.37361 4.67054 5.54163C3.92177 6.6627 3.56372 7.92496 3.16909 9.1728C3.09639 9.40301 3.04481 9.63901 2.96935 9.93689C2.95839 9.97977 2.9331 9.98226 2.91394 9.94199C2.6146 9.31099 2.56517 8.72864 2.66208 8.12833C2.77405 7.43215 2.88899 6.73652 3.00452 6.04084C3.02813 5.89941 3.05638 5.75842 3.08381 5.6175C3.09229 5.57412 3.06155 5.52976 3.01549 5.51839C3.00641 5.51609 2.99767 5.5141 2.98859 5.5118C2.94245 5.50037 2.88105 5.51919 2.84951 5.55213C2.72274 5.68398 2.57318 5.80795 2.50929 5.96205C2.2236 6.65289 1.94875 7.34957 1.71928 8.05768C1.53872 8.61543 1.42264 9.19088 1.28215 9.75956C1.27146 9.80237 1.23582 9.84195 1.20232 9.84773C1.16883 9.85357 1.13534 9.82312 1.12741 9.77956C0.960825 8.86484 0.794579 7.95018 0.628065 7.03546C0.62013 6.99209 0.575071 6.95407 0.527659 6.95077C0.519387 6.95027 0.511182 6.94978 0.502978 6.94903C0.455498 6.94574 0.403917 6.97668 0.386902 7.01769C0.298803 7.22964 0.189923 7.43805 0.14816 7.65733C-0.0732314 8.82073 -0.035369 9.98971 0.187704 11.1463C0.559402 13.0708 1.30105 14.8783 2.28911 16.6023Z" fill="black"/>
</g>
<defs>
<clipPath id="clip0_31_558">
<rect width="36" height="36" fill="white"/>
</clipPath>
</defs>
</svg>
