<svg width="36" height="36" viewBox="0 0 36 36" fill="none" xmlns="http://www.w3.org/2000/svg">
<path d="M15.7409 25.7599C15.2073 24.8896 14.75 24.1354 14.75 22.5399C14.75 20.9444 15.2073 20.1902 15.7409 19.3199C16.2287 18.5367 16.7622 17.6519 16.9299 16.2015C16.9451 16.0854 16.9299 15.9549 16.8994 15.8533H15.1006C15.0854 15.8969 15.0701 15.9549 15.0701 16.0129C14.9482 17.0862 14.5518 17.7244 14.125 18.4351C13.5457 19.3924 12.875 20.4803 12.875 22.5544C12.875 24.6285 13.5457 25.7164 14.125 26.6736C14.5518 27.3844 14.9329 28.0081 15.0701 29.0669C15.1006 29.531 15.497 29.9081 16 29.9081C16.5183 29.9081 16.9299 29.502 16.9299 29.0234C16.9299 29.0089 16.9299 28.9653 16.9299 28.9653C16.7774 27.4424 16.2287 26.5576 15.7409 25.7599Z" fill="black"/>
<path d="M9.53659 21.7712C9.53659 20.1757 9.99391 19.4214 10.5274 18.5512C10.9695 17.8405 11.4421 17.0572 11.6555 15.8533H9.75001C9.56708 16.5786 9.2622 17.0862 8.91159 17.6519C8.33232 18.6092 7.66159 19.697 7.66159 21.7567C7.66159 23.8308 8.33232 24.9186 8.91159 25.8614C9.44513 26.7317 9.90244 27.4859 9.90244 29.0814C9.90244 30.6769 9.44513 31.4311 8.91159 32.3014C8.48476 32.9976 8.0122 33.7663 7.79879 34.9412C7.69208 35.4923 8.13415 36 8.71342 36C9.17074 36 9.55183 35.6809 9.62805 35.2603C9.79574 34.4045 10.1311 33.8388 10.5274 33.2006C11.1067 32.2434 11.7774 31.1555 11.7774 29.0814C11.7774 27.0073 11.1067 25.9194 10.5274 24.9766C9.99391 24.1064 9.53659 23.3521 9.53659 21.7712Z" fill="black"/>
<path d="M23.1646 17.1297C23.1646 16.6511 23.1189 16.2305 23.0427 15.8533H21.122V15.8679C21.2287 16.2305 21.2896 16.6366 21.2896 17.1297C21.2896 18.6672 20.7104 19.4069 20.0396 20.2627C19.2774 21.2345 18.4238 22.3368 18.4238 24.4545C18.4238 26.5866 19.2774 27.6745 20.0396 28.6463C20.5732 29.3425 21.061 29.9517 21.2287 30.9815C21.3049 31.4166 21.686 31.7502 22.1585 31.7502C22.7378 31.7502 23.1646 31.2571 23.0884 30.7204C22.8598 29.2554 22.1738 28.3852 21.564 27.5874C20.8933 26.7317 20.314 25.9919 20.314 24.4545C20.314 22.917 20.8933 22.1773 21.564 21.3215C22.311 20.3497 23.1646 19.2474 23.1646 17.1297Z" fill="black"/>
<path d="M18.4848 0C11.5945 0 6 4.53989 6 10.1386C6 11.0669 6.15244 11.9662 6.44207 12.8074C6.71646 13.6342 7.50915 14.1998 8.42378 14.1998H28.5762C29.4756 14.1998 30.2683 13.6342 30.5579 12.8074C30.8476 11.9517 31 11.0524 31 10.1386C30.9695 4.53989 25.375 0 18.4848 0Z" fill="black"/>
<path d="M29.689 21.7712C29.689 19.639 28.8354 18.5512 28.0732 17.5794C27.6464 17.0427 27.2653 16.5351 27.0366 15.8533H25.1159C25.3903 17.1007 26.0153 17.913 26.5793 18.6382C27.25 19.494 27.8293 20.2337 27.8293 21.7712C27.8293 23.3086 27.25 24.0484 26.5793 24.9041C25.8171 25.8759 24.9634 26.9782 24.9634 29.0959C24.9634 31.228 25.8171 32.3159 26.5793 33.2877C27.0671 33.9114 27.4939 34.4625 27.6921 35.3038C27.7836 35.7099 28.1647 36 28.6067 36C29.2165 36 29.6586 35.4633 29.5214 34.8977C29.2317 33.7083 28.6372 32.9251 28.0732 32.2289C27.4025 31.3731 26.8232 30.6334 26.8232 29.0959C26.8232 27.5584 27.4025 26.8187 28.0732 25.9629C28.8354 24.9911 29.689 23.8888 29.689 21.7712Z" fill="black"/>
</svg>
