<svg width="36" height="36" viewBox="0 0 36 36" fill="none" xmlns="http://www.w3.org/2000/svg">
<path d="M12.8204 21.0878L16.1564 22.4722C14.713 24.7087 12.4236 26.7272 12.4236 26.7272L12.9376 30.0227C13.8756 30.0227 14.6417 30.9008 14.6624 31.9995V32H11.2874L10.2566 24.7592C11.1863 23.6128 12.0446 22.3887 12.8204 21.0878ZM27.7294 23.9464L29.9531 31.9997H33.1876C33.1876 30.9078 32.432 30.0223 31.5 30.0223L30.391 22.8753C29.02 23.8247 27.7294 23.9464 27.7294 23.9464ZM33.1876 7.61367V6.99584L31.5 6.2955C31.5194 4.50078 30.2896 3.02979 28.7577 3.01557L27.0703 3C23.3036 3 20.25 6.57788 20.25 10.9914V12.2272H8.36414H8.35371C5.44471 12.2272 2.96343 14.7755 2.58214 18.1546L1.84786 24.6645C1.72571 25.7464 0.931429 26.5623 0 26.5623V29.3633C0 29.3633 2.86529 28.6012 3.242 24.8804L3.97629 18.3706C4.19214 16.4572 5.29586 14.8956 6.75929 14.2268L5.37243 23.0052L4.68971 23.8603C4.57014 24.0103 4.51686 24.2167 4.54571 24.4191L5.625 31.9998H9C9 30.908 8.24443 30.0225 7.31243 30.0225H7.17186L6.76114 26.727L6.84743 26.6462C9.003 24.6261 10.869 22.2151 12.375 19.5046L19.1736 22.3257C19.886 22.6213 20.6361 22.7725 21.392 22.7725H23.625V31.9997H27V31.6701C27 30.76 26.3704 30.0223 25.5937 30.0223L26.7187 22.7723L27.8211 22.6028C30.3377 22.0489 31.6539 20.136 32.274 18.5229C32.902 16.8897 33.188 15.3059 33.1876 13.619C33.1874 12.8601 33.1874 12.227 33.1874 12.227H34.413C35.0087 12.227 35.5216 11.7344 35.6384 11.0499L36 8.93183L33.1876 7.61367Z" fill="black"/>
</svg>
