<svg width="36" height="36" viewBox="0 0 36 36" fill="none" xmlns="http://www.w3.org/2000/svg">
<path d="M14.7563 25.9074L14.9634 31H12.951L11.4586 25.7619L14.7563 25.9074ZM26.3031 25.9386L26.277 26.3527L27.6689 31H29.5433L29.1092 25.6579C28.1794 25.8163 27.243 25.91 26.3046 25.9386H26.3031ZM28.8178 10.4275C29.153 10.4222 29.4875 10.3868 29.8186 10.3216C33.7453 9.60123 32.6171 5.63647 32.6171 5.63647C32.6171 5.63647 29.5218 6.48728 28.5655 7.85046C28.567 7.85046 26.4089 10.4275 28.8193 10.4275H28.8178ZM35.095 8.03291C35.095 8.03291 34.5728 8.03291 33.8741 8.11043C33.7099 8.93742 33.3564 9.68884 32.8556 10.2753C33.0703 10.7027 33.2609 11.1477 33.4262 11.6073C35.3627 10.7158 35.0973 8.03291 35.0973 8.03291H35.095ZM36 17.5034V21.4256C36 21.4256 31.9238 24.4412 25.6849 24.4412C25.517 24.4412 25.3444 24.427 25.1734 24.4223L24.7531 31H23.296L21.4208 24.6794L8.95149 24.1245L8.23059 31H6.49505C6.49505 31 2.80233 21.3972 4.71733 13.7891C4.29169 13.4261 3.84457 13.0168 3.43427 12.5885C3.04084 12.839 2.64741 12.9771 2.28389 12.9525C1.07522 12.8721 0.108136 11.7491 0 11.6205L0.855883 10.5371C1.05528 10.7735 1.7156 11.4002 2.34984 11.4418C2.39348 11.4441 2.43719 11.4406 2.48022 11.4314C2.34892 11.2403 2.23115 11.0357 2.1282 10.8198C1.69489 9.89051 1.59136 8.89885 1.83371 8.09814C1.93862 7.76561 2.10302 7.46653 2.31468 7.22315C2.52633 6.97977 2.77978 6.79836 3.05618 6.69242C3.92203 6.33224 5.11536 6.37573 5.72122 7.15563C5.9467 7.44585 6.27647 8.08585 5.9513 9.11249C5.67598 9.99072 5.11919 10.9408 4.46654 11.6763C4.68665 11.8937 4.92209 12.1121 5.16367 12.3257C5.88918 10.3547 7.0687 8.58405 8.88477 7.24355C11.7544 5.11078 15.0437 3.98893 18.3946 4.00008C21.6178 4.01111 24.7905 4.98832 27.639 6.84745C27.423 7.12023 27.2238 7.41252 27.0431 7.72189C26.4603 8.73057 26.3015 9.6589 26.5715 10.4813C26.7901 11.1431 27.356 11.9391 28.814 11.9391C29.2098 11.934 29.6048 11.8929 29.9958 11.8162C30.6343 11.7097 31.2554 11.4807 31.8364 11.1374C33.0443 13.5688 33.157 16.6837 33.9838 16.904C34.9647 17.1611 36 17.5034 36 17.5034V17.5034ZM4.81012 8.56798C4.8431 8.4621 4.89065 8.27397 4.83467 8.20213C4.73343 8.07167 4.46578 7.98848 4.15057 7.98848C3.9121 7.9868 3.67494 8.03212 3.44807 8.12272C3.20803 8.22198 3.05541 8.38836 2.98102 8.63131C2.86905 9.00472 2.94574 9.54073 3.19192 10.0673C3.29663 10.2801 3.41981 10.4782 3.55928 10.6581C4.07005 10.1079 4.57084 9.33087 4.81012 8.56798ZM30.2059 16.2772C30.2059 16.108 30.1652 15.9426 30.0889 15.8019C30.0127 15.6612 29.9043 15.5516 29.7775 15.4868C29.6506 15.4221 29.5111 15.4051 29.3765 15.4381C29.2418 15.4712 29.1181 15.5526 29.0211 15.6723C28.924 15.7919 28.8579 15.9444 28.8311 16.1103C28.8043 16.2763 28.8181 16.4483 28.8706 16.6046C28.9232 16.761 29.0121 16.8946 29.1263 16.9886C29.2404 17.0826 29.3746 17.1328 29.5119 17.1328C29.6959 17.1328 29.8725 17.0426 30.0026 16.8822C30.1328 16.7218 30.2059 16.5041 30.2059 16.2772V16.2772Z" fill="black"/>
</svg>
