<svg width="36" height="36" viewBox="0 0 36 36" fill="none" xmlns="http://www.w3.org/2000/svg">
<path d="M5.04638 10.8873V19.411C5.04638 21.5101 5.74243 23.4184 6.92572 25.0404C6.6821 25.2949 6.47328 25.6447 6.26447 26.0582C5.67282 27.2668 5.98605 28.6344 6.89092 29.5249L11.6589 34.0412C11.7285 34.1366 11.8677 34.232 12.0069 34.2956C12.4245 34.4547 12.877 34.2956 13.051 33.914C13.1206 33.755 13.1554 33.5641 13.0858 33.4369L12.0765 28.8252C13.3294 29.2705 14.6867 29.5249 16.1136 29.5249H26.8328C23.979 31.306 23.979 34.8045 23.979 34.8681C24.0138 35.1226 24.0138 35.2816 24.1182 35.5042C24.2226 35.7905 24.4314 36.0767 24.8839 35.9813L31.392 31.2424C34.385 29.3023 36.9256 26.0582 35.6727 22.7187C34.8026 20.4606 32.3316 19.5382 29.9302 19.1248L16.3572 16.644L10.4408 6.91172C9.70993 5.76675 7.83059 4.93982 6.54289 5.00343C5.25519 5.09885 4.35033 5.4169 3.44546 6.1166L0.522038 6.68909C0.208814 6.72089 0 6.94352 0 7.22977L0.313225 8.31113C0.417633 8.56557 0.556843 8.72459 0.800461 8.88362L5.04638 10.8873Z" fill="black"/>
</svg>
