<svg width="36" height="36" viewBox="0 0 36 36" fill="none" xmlns="http://www.w3.org/2000/svg">
<path d="M14.6846 33.9852H12.7209C12.536 33.9852 12.3368 33.9704 12.166 33.9704C12.1518 33.9704 12.1518 33.9704 12.1518 33.9704C11.9953 33.9852 11.8387 33.9852 11.6822 33.9852C7.38498 33.9852 3.14466 30.4067 1.28063 26.7098C0.967589 26.0739 0.697233 25.3937 0.483794 24.6987C0.170751 23.634 0 22.4954 0 21.3124C0 19.7006 0.313043 18.1627 0.882213 16.7726C1.46561 14.9982 2.58972 13.1941 4.63874 11.5823C8.16759 8.80222 6.60237 4.5878 6.60237 4.5878C7.05771 4.49908 7.49881 4.45471 7.93992 4.45471C11.2696 4.45471 14.1439 7.97412 14.5138 11.1091C14.5565 11.39 14.5708 11.671 14.5708 11.9667C14.5708 13.2089 14.1012 14.2292 13.4324 15.1904C12.0522 16.4621 10.9565 18.0592 10.302 19.8632C10.0316 20.5878 9.84664 21.342 9.71858 22.1257C9.61897 22.7616 9.56206 23.427 9.56206 24.1072C9.54783 28.2181 11.5968 31.8854 14.6846 33.9852ZM36 20.0259C36 20.0407 36 20.0555 36 20.0702C36 20.0998 36 20.1146 36 20.1294C36 21.0018 35.317 21.7116 34.4775 21.7116H31.8166C31.4182 22.037 31.0198 22.4067 30.5929 22.7468C30.4648 22.8503 30.3368 22.939 30.2087 23.0277C30.0664 23.146 29.9241 23.2347 29.7676 23.3235C29.6538 23.3678 29.5399 23.4418 29.4403 23.4861C29.0561 23.6636 28.6577 23.7819 28.2308 23.7819C28.2024 23.7819 28.1881 23.7819 28.1455 23.7819C28.0174 23.7819 27.8751 23.7671 27.747 23.7523C26.5376 23.6192 25.9542 22.8651 25.4134 21.8004C25.3992 21.7856 25.385 21.7708 25.3708 21.756C24.9866 21.2828 24.6451 21.0314 24.3605 20.9131C23.4213 20.2921 22.3115 19.9076 21.1304 19.8928L21.2158 20.4991C24.1897 20.6026 26.5802 23.1312 26.5802 26.2514C26.5802 28.0111 25.7976 29.5933 24.6024 30.6433C25.5415 30.7911 26.3383 31.3678 26.8364 32.1516C26.9929 32.403 27.121 32.6987 27.2206 32.9945C27.3202 33.305 27.3771 33.6599 27.3771 34H26.6941H25.9542H24.2182H20.8459H16.5486C14.215 32.8466 12.2656 30.8503 11.2553 28.3808C10.8285 27.3604 10.5581 26.2366 10.4585 25.0832C10.3589 24.4621 10.3162 23.8115 10.3162 23.1756C10.3162 20.4251 13.2901 14.732 17.7296 13.4307C17.7296 13.4307 21.1162 12.085 21.5146 11.9224C24.9581 10.4436 23.9194 8.47689 24.7874 7.07209C25.8261 5.37153 27.249 5.23845 27.249 5.23845L29.17 2.81331L29.8387 2C30.351 2 30.7636 3.878 30.8348 5.46026C34.7336 7.35305 35.3028 11.5083 35.3028 13.1497C35.3028 14.9242 34.4063 15.7967 33.083 16.1516C32.4854 16.2994 31.6601 16.3438 30.9059 16.3438C30.0237 16.3438 29.2696 16.2847 29.2696 16.2847C29.2696 16.4177 30.3083 18.5176 30.3083 18.5176H33.1826C33.3534 18.5028 33.5526 18.488 33.7233 18.488C33.8941 18.488 34.0648 18.5028 34.2498 18.5176H34.4775C34.9043 18.5176 35.2885 18.7098 35.5731 19.0055C35.7581 19.183 35.8719 19.3604 35.9004 19.5675C35.9715 19.7301 36 19.878 36 20.0259ZM29.4688 9.6451C29.4688 10.2514 29.9383 10.7542 30.536 10.7542C31.1336 10.7542 31.6032 10.2662 31.6032 9.6451C31.6032 9.03882 31.1336 8.53604 30.536 8.53604C29.9383 8.53604 29.4545 9.03882 29.4688 9.6451Z" fill="black"/>
</svg>
