<svg width="36" height="36" viewBox="0 0 36 36" fill="none" xmlns="http://www.w3.org/2000/svg">
<path d="M7.61011 26C7.40367 26.0005 7.20174 25.9376 7.02997 25.8195C6.85819 25.7013 6.72431 25.5332 6.64531 25.3364C6.56631 25.1395 6.54576 24.923 6.58627 24.7141C6.62678 24.5052 6.72652 24.3134 6.87283 24.1632L23.5759 6.92888C23.6728 6.82898 23.7877 6.74973 23.9142 6.69566C24.0407 6.64159 24.1763 6.61376 24.3132 6.61376C24.4502 6.61376 24.5857 6.64159 24.7122 6.69566C24.8387 6.74973 24.9537 6.82898 25.0505 6.92888C25.1473 7.02879 25.2241 7.1474 25.2765 7.27793C25.3289 7.40847 25.3559 7.54837 25.3559 7.68966C25.3559 7.83095 25.3289 7.97086 25.2765 8.10139C25.2241 8.23193 25.1473 8.35053 25.0505 8.45044L8.3474 25.6847C8.15188 25.8865 7.88667 25.9999 7.61011 26V26ZM16.2469 13.3691C16.051 13.3688 15.8592 13.3115 15.6934 13.204C15.5275 13.0964 15.3944 12.9429 15.3091 12.761C15.2238 12.579 15.1899 12.376 15.2111 12.1751C15.2324 11.9742 15.308 11.7835 15.4293 11.6248C15.5471 11.4699 18.1104 8.00818 16.4419 3.47686C16.3903 3.3442 16.3648 3.20225 16.367 3.05931C16.3691 2.91637 16.3989 2.77531 16.4545 2.64436C16.51 2.51342 16.5904 2.39521 16.6907 2.29665C16.791 2.19809 16.9094 2.12115 17.0389 2.07032C17.1684 2.01949 17.3064 1.99579 17.4449 2.00061C17.5833 2.00543 17.7195 2.03867 17.8453 2.09839C17.9712 2.15811 18.0843 2.24311 18.178 2.34843C18.2717 2.45374 18.3441 2.57727 18.391 2.71178C20.4944 8.42246 17.2032 12.7805 17.0624 12.9635C16.9649 13.0902 16.841 13.1925 16.6997 13.2628C16.5585 13.3331 16.4037 13.3694 16.2469 13.3691V13.3691ZM20.3035 17.5529C20.1071 17.5538 19.9145 17.4973 19.748 17.3899C19.5815 17.2825 19.4478 17.1287 19.3625 16.9462C19.2771 16.7637 19.2437 16.56 19.2659 16.3587C19.2881 16.1573 19.3651 15.9666 19.488 15.8086C19.6319 15.6235 23.0702 11.2923 29.2104 12.8752C29.3433 12.9094 29.4684 12.9704 29.5784 13.0545C29.6885 13.1387 29.7814 13.2444 29.8518 13.3656C29.9222 13.4869 29.9688 13.6212 29.9888 13.7611C30.0088 13.9009 30.0019 14.0434 29.9685 14.1805C29.901 14.457 29.7302 14.6946 29.4933 14.8414C29.2564 14.9882 28.9729 15.0323 28.7046 14.9639C23.8836 13.7189 21.2254 17.0138 21.1148 17.1547C21.0169 17.2793 20.8932 17.3797 20.7529 17.4486C20.6125 17.5175 20.459 17.5531 20.3035 17.5529V17.5529ZM6.51931 19.5382C5.37636 19.5382 4.11974 19.3381 2.78595 18.8162C2.65791 18.766 2.54069 18.6903 2.441 18.5934C2.3413 18.4965 2.26108 18.3803 2.20492 18.2514C2.14875 18.1225 2.11774 17.9834 2.11366 17.8422C2.10957 17.7009 2.13249 17.5602 2.18111 17.4281C2.22972 17.2959 2.30309 17.175 2.397 17.0721C2.49092 16.9692 2.60355 16.8865 2.72847 16.8285C2.85339 16.7706 2.98815 16.7386 3.12505 16.7343C3.26195 16.7301 3.39832 16.7538 3.52637 16.8039C7.92609 18.5299 11.284 15.8721 11.4248 15.758C11.6422 15.5826 11.918 15.5029 12.192 15.5364C12.4661 15.5699 12.7162 15.7137 12.8879 15.9366C13.0593 16.1592 13.1382 16.4428 13.1071 16.7253C13.076 17.0077 12.9375 17.2659 12.7221 17.4431C12.5876 17.554 10.1202 19.5382 6.51931 19.5382V19.5382ZM8.1503 10.8587C6.24296 10.8587 2.96949 10.34 0.285232 7.27322C0.189728 7.16904 0.115369 7.04621 0.0665252 6.91195C0.0176813 6.77769 -0.00466211 6.63471 0.000808154 6.49142C0.00627842 6.34812 0.039452 6.2074 0.0983792 6.07752C0.157306 5.94764 0.240798 5.83122 0.343949 5.73511C0.447099 5.63901 0.567826 5.56514 0.699035 5.51786C0.830245 5.47058 0.969289 5.45085 1.108 5.45981C1.2467 5.46877 1.38228 5.50625 1.50675 5.57004C1.63122 5.63384 1.74207 5.72266 1.8328 5.8313C4.98634 9.43504 9.14934 8.64951 9.32662 8.61508C9.59781 8.55914 9.87942 8.61666 10.1095 8.77497C10.3396 8.93328 10.4993 9.17943 10.5535 9.45925C10.6077 9.73908 10.552 10.0297 10.3986 10.2671C10.2451 10.5045 10.0066 10.6693 9.73542 10.7252C9.21218 10.8202 8.68153 10.8648 8.1503 10.8587V10.8587Z" fill="black"/>
<path d="M10.1749 10.9134C10.0165 10.9136 9.85995 10.8784 9.71665 10.8104C9.57336 10.7423 9.44685 10.643 9.34626 10.5198C9.24566 10.3965 9.17349 10.2524 9.13493 10.0976C9.09637 9.94289 9.0924 9.78148 9.1233 9.62502C9.15971 9.43849 9.93717 5.13654 6.35293 1.87827C6.14219 1.68654 6.01573 1.41837 6.00137 1.13277C5.99426 0.99135 6.01488 0.849908 6.06207 0.716516C6.10925 0.583123 6.18207 0.460394 6.27636 0.355335C6.37065 0.250276 6.48457 0.164945 6.61162 0.104213C6.73867 0.0434812 6.87635 0.00853859 7.01681 0.00138012C7.30048 -0.0130771 7.57824 0.0865142 7.78898 0.278245C12.3017 4.38181 11.2704 9.81909 11.2233 10.0487C11.1744 10.2925 11.0433 10.5117 10.8522 10.6693C10.6612 10.8269 10.4219 10.9131 10.1749 10.9134V10.9134ZM14.4027 31C14.1641 30.9997 13.9323 30.9191 13.7443 30.771C13.5563 30.623 13.4228 30.4159 13.3651 30.1827C11.7877 23.8268 16.1001 20.2785 16.2843 20.1308C16.5068 19.9619 16.786 19.8869 17.0625 19.9219C17.339 19.9568 17.5912 20.0989 17.7653 20.318C17.9394 20.5371 18.0218 20.816 17.995 21.0953C17.9683 21.3746 17.8344 21.6324 17.6218 21.8139C17.4719 21.9368 14.2089 24.6894 15.4426 29.6598C15.4821 29.8189 15.4852 29.9849 15.4514 30.1454C15.4176 30.3058 15.348 30.4563 15.2477 30.5856C15.1474 30.7148 15.0192 30.8193 14.8728 30.8911C14.7264 30.9629 14.5656 31.0002 14.4027 31V31Z" fill="black"/>
<path d="M31.3903 20.0976C28.2597 16.968 24.944 16.3228 21.9614 17.9093C21.7954 15.9272 20.7282 13.6712 19.2951 12.237C17.7213 10.6632 16.1137 10.4886 14.6362 11.1328C15.7551 8.52559 15.2707 5.38959 13.7625 3.88135C11.8133 1.93205 8.90371 3.44664 6.17498 6.17438C3.44625 8.90318 1.9317 11.8128 3.882 13.7621C5.38915 15.2704 8.52613 15.7537 11.1332 14.6358C10.4881 16.1134 10.6636 17.7221 12.2374 19.2948C13.6695 20.7269 15.9275 21.7941 17.9096 21.9612C16.3231 24.9439 16.9672 28.2586 20.0978 31.3904C24.064 35.3556 33.0054 37.2362 35.1207 35.1208C37.236 33.0055 35.3565 24.0628 31.3903 20.0976V20.0976Z" fill="black"/>
</svg>
