<svg width="36" height="36" viewBox="0 0 36 36" fill="none" xmlns="http://www.w3.org/2000/svg">
<path d="M36 12.6599V15.7701C36 16.5477 35.2647 17.184 34.3658 17.184H23.6624C23.1661 17.184 22.7637 17.5321 22.7637 17.9616C22.7637 18.391 23.1661 18.7391 23.6624 18.7391H33.3855C34.1977 18.7391 34.8562 19.3089 34.8562 20.0116C34.8562 20.7143 34.1977 21.284 33.3855 21.284H12.4688C10.4019 21.3053 8.67637 22.7303 8.67637 24.5213C8.67637 26.3123 10.2384 27.7663 12.3054 27.7874H14.5041V26.3993C14.5041 24.7887 15.6972 23.3593 17.4647 22.8531L19.8962 22.1566L19.2277 26.0397C19.0417 27.12 18.3524 28.0871 17.3204 28.7161L16.7259 29.0784L17.3204 29.4406C18.3525 30.0696 19.0417 31.0367 19.2277 32.117L19.8961 36L17.4645 35.3034C15.6972 34.7973 14.5039 33.368 14.5039 31.7571V30.3321H12.1419V30.3281C5.39099 30.2321 0 25.5221 0 19.6579C0 14.667 3.94008 10.4724 9.27558 9.27386L24.8685 5.42286C30.4148 4.05314 36 7.66957 36 12.6599ZM16.8068 0C16.1147 0 15.5534 0.485429 15.5534 1.08443C15.5534 1.29571 15.6244 1.49214 15.7451 1.65886L18.0248 6.43914C18.0248 6.43914 18.0248 1.07243 18.0248 1.06671C18.0248 0.467857 17.499 0 16.8068 0ZM21.2959 2.521C21.2959 1.97414 20.7836 1.53086 20.1515 1.53086C19.5194 1.53086 19.0071 1.97414 19.0071 2.521C19.0071 2.52629 19.0069 5.938 19.0069 5.938L21.0846 3.09286C21.2174 2.93114 21.2959 2.73414 21.2959 2.521Z" fill="black"/>
</svg>
