<svg width="36" height="36" viewBox="0 0 36 36" fill="none" xmlns="http://www.w3.org/2000/svg">
<g clip-path="url(#clip0_64_275)">
<path d="M35.8366 14.0561C35.3662 14.5548 34.6731 14.5548 34.4453 14.5548C34.0229 14.5548 33.5006 14.4848 32.7522 14.3278C32.1643 14.2045 31.6582 14.0816 31.2118 13.9733C30.3337 13.76 29.6991 13.6058 29.1017 13.6058C28.765 13.6058 28.1507 13.7517 27.5001 13.9062C26.4871 14.1469 25.2265 14.4462 24.0072 14.4462C22.7762 14.4462 21.4805 14.3505 20.6641 14.2767C20.3929 15.2932 19.7478 16.9694 18.2835 18.1693C16.2926 19.8004 14.8165 20.5281 14.7546 20.5582C14.3765 20.7426 13.9219 20.646 13.6517 20.3236C13.3815 20.0014 13.3654 19.5367 13.6127 19.1967C13.6209 19.1851 14.6159 17.7785 14.5777 16.1977C14.5626 15.5689 14.5397 15.0761 14.5164 14.7008C13.2764 15.0663 11.165 15.8835 10.0758 17.4217C8.42592 19.7515 7.74906 23.3384 7.93036 24.5151C8.11911 25.7411 8.1417 25.7411 8.72345 25.7411C9.99097 25.7411 11.0558 25.793 12.2552 26.446C13.3162 27.0233 13.9005 27.655 13.9635 27.7252C14.2014 27.9895 14.2648 28.3678 14.126 28.6951C13.9872 29.0226 13.6713 29.2401 13.3159 29.2528C12.9731 29.2656 11.9357 29.352 11.269 29.594C10.9149 29.7226 10.61 29.873 10.315 30.0185C9.84312 30.2513 9.39738 30.4712 8.8774 30.5326C8.70831 30.5527 8.5347 30.5624 8.37037 30.5594C8.17869 31.0046 7.85247 31.5353 7.3038 31.9564C6.88382 32.2789 6.45651 32.4777 6.0795 32.6531C5.61654 32.8686 5.25076 33.0387 4.96996 33.3869C4.23401 34.2995 3.98702 35.2891 3.9847 35.299C3.8885 35.6942 3.5425 35.9806 3.13619 35.999C3.12215 35.9998 3.10799 36 3.09395 36C2.70436 36 2.35482 35.7544 2.22773 35.3827C2.17047 35.2158 1.68785 33.6862 2.33016 31.4472C2.55981 30.6468 2.91557 29.9539 3.2595 29.2837C3.81915 28.1935 4.3025 27.2521 4.09971 26.0985C3.14644 20.6764 3.21225 16.2678 4.29517 12.9956C5.97902 7.90645 10.0553 5.07095 10.8554 4.55439C11.2523 4.29788 11.6095 4.07226 11.9106 3.88473C11.6314 3.66229 11.2764 3.42861 10.8545 3.24926C9.89416 2.841 9.49053 2.72941 9.3787 2.7028C9.37149 2.70304 9.36454 2.70304 9.35758 2.70304C8.95896 2.70316 8.65251 2.43994 8.53592 2.05121C8.41481 1.64758 8.63982 1.21429 9.00254 1.00003C9.07152 0.959127 10.7213 0 12.8956 0C13.3443 0 13.79 0.0411438 14.2204 0.122333C15.5613 0.375422 16.5089 0.75353 17.4253 1.11906C18.3201 1.47605 19.1653 1.81326 20.4272 2.07905C21.0402 2.20822 21.6048 2.30784 22.1506 2.40429C24.0287 2.73588 25.6507 3.0223 28.0757 4.26065C31.2407 5.8771 33.0204 7.64567 33.0871 9.24027C33.1011 9.57638 33.0938 9.87672 33.065 10.1407C33.3612 10.2888 33.7211 10.4759 34.0847 10.6827C35.5647 11.5245 36.1854 12.155 36.2268 12.8586C36.2555 13.3482 36.1243 13.751 35.8366 14.0561Z" fill="black"/>
</g>
<defs>
<clipPath id="clip0_64_275">
<rect width="36" height="36" fill="white"/>
</clipPath>
</defs>
</svg>
