<svg width="36" height="36" viewBox="0 0 36 36" fill="none" xmlns="http://www.w3.org/2000/svg">
<path d="M29.178 0C26.7859 0 24.3052 1.58366 23.0648 2.57345C21.8244 1.21603 20.023 0.395915 18.0148 0.395915C16.0066 0.395915 14.2051 1.21603 12.9352 2.57345C11.6948 1.58366 9.21411 0 6.82199 0C3.42576 0 0 3.28044 0 3.28044C0 3.28044 1.24036 6.56088 3.42576 9.81304C5.61116 13.0652 8.50533 16.3456 8.50533 16.3456L10.3363 15.2145V34.3598C9.86382 34.3598 9.4799 34.7274 9.4799 35.1799V36H15.4454V23.1893L16.7153 36H19.2847L20.5546 23.1893V36H26.5201V35.1799C26.5201 34.7274 26.1362 34.3598 25.6637 34.3598V15.2145L27.4947 16.3456C27.4947 16.3456 30.3888 13.0652 32.5742 9.81304C34.7596 6.56088 36 3.28044 36 3.28044C36 3.28044 32.6038 0 29.178 0ZM13.7621 8.59701C14.2346 8.59701 14.6185 8.96465 14.6185 9.41712C14.6185 9.8696 14.2346 10.2372 13.7621 10.2372C13.2896 10.2372 12.9057 9.8696 12.9057 9.41712C12.9057 8.96465 13.2896 8.59701 13.7621 8.59701ZM15.475 19.2302C15.475 20.8704 14.2051 22.2561 12.5808 22.454C12.5808 22.454 12.5513 22.454 12.4922 22.454C12.2264 22.454 12.0788 22.2844 12.0788 22.0581C12.0788 21.8885 12.1969 21.7188 12.3741 21.6905C13.2305 21.3229 13.7916 20.5593 13.7916 19.5978V15.1296H15.5045V19.2302H15.475ZM22.297 8.59701C22.7695 8.59701 23.1534 8.96465 23.1534 9.41712C23.1534 9.8696 22.7695 10.2372 22.297 10.2372C21.8244 10.2372 21.4405 9.8696 21.4405 9.41712C21.4405 8.96465 21.8244 8.59701 22.297 8.59701ZM23.5964 22.454H23.5078C21.854 22.2561 20.6136 20.8704 20.6136 19.2302V15.1296H22.297V19.5978C22.297 20.531 22.8876 21.3511 23.7145 21.6905C23.8917 21.7188 24.0098 21.8885 24.0098 22.0581C24.0098 22.2844 23.8031 22.454 23.5964 22.454Z" fill="black"/>
</svg>
