<svg width="36" height="36" viewBox="0 0 36 36" fill="none" xmlns="http://www.w3.org/2000/svg">
<path d="M35.0984 6.9375C34.5832 6.75 34.068 6.9375 33.6816 7.5L29.5599 15C27.3703 11.25 21.9606 3 15.3918 3C15.1342 3 15.0054 3 14.7478 3C16.551 7.5 17.4526 12.5625 17.4526 18C17.4526 23.25 16.551 28.5 14.7478 33C15.0054 33 15.1342 33 15.3918 33C21.9606 33 27.3703 24.9375 29.5599 21L33.6816 28.5C33.9392 28.875 34.3256 29.25 34.712 29.25C34.8408 29.25 34.9696 29.25 35.0984 29.0625C35.6136 28.875 36 28.125 36 27.375V8.625C36 7.875 35.6136 7.125 35.0984 6.9375Z" fill="black"/>
<path d="M12.0429 3.74999C5.34526 6.56249 0.450805 16.5 0.193202 16.875C-0.0644007 17.4375 -0.0644007 18.375 0.193202 19.125C0.450805 19.6875 5.34526 29.625 12.0429 32.25C13.975 27.9375 14.8766 23.0625 14.8766 18C14.8766 12.9375 13.8462 7.87499 12.0429 3.74999ZM10.2397 18C10.2397 19.125 9.72451 19.875 8.9517 19.875C8.17889 19.875 7.66368 19.125 7.66368 18V14.25C7.66368 13.125 8.17889 12.375 8.9517 12.375C9.72451 12.375 10.2397 13.125 10.2397 14.25V18Z" fill="black"/>
</svg>
