<svg width="36" height="36" viewBox="0 0 36 36" fill="none" xmlns="http://www.w3.org/2000/svg">
<g clip-path="url(#clip0_74_21)">
<path d="M28.6877 20.4395C28.7401 20.0022 28.774 19.5614 28.774 19.1165C28.774 18.6847 28.7426 18.2606 28.6943 17.8416C32.8092 17.2977 35.9999 13.7156 35.9999 9.38164C35.9999 8.70773 35.4631 8.16169 34.8014 8.16169C34.1398 8.16169 33.603 8.70773 33.603 9.38164C33.603 12.5635 31.1965 15.1802 28.1393 15.4539C27.7259 14.2774 27.1277 13.1894 26.3673 12.235C29.2576 10.8569 31.2061 7.86935 31.2061 4.50194C31.2061 3.82803 30.6692 3.28199 30.0076 3.28199C29.3459 3.28199 28.8091 3.82803 28.8091 4.50194C28.8091 7.24228 27.0057 9.63321 24.4567 10.3689C22.9533 9.2146 21.1518 8.44242 19.1863 8.21321V1.21994C19.1864 0.546037 18.6496 0 17.9879 0C17.3262 0 16.7895 0.546037 16.7895 1.21994V8.20911C14.819 8.43212 13.0134 9.20284 11.5078 10.3602C8.9771 9.61304 7.19086 7.22986 7.19086 4.50201C7.19086 3.8281 6.65399 3.28207 5.99237 3.28207C5.33074 3.28207 4.79388 3.8281 4.79388 4.50201C4.79388 7.85868 6.72958 10.8387 9.60456 12.2224C8.84366 13.1793 8.2452 14.2708 7.83245 15.4525C4.78842 15.1654 2.39698 12.5539 2.39698 9.38164C2.39698 8.70773 1.86011 8.16169 1.19849 8.16169C0.536864 8.16169 0 8.70773 0 9.38164C0 13.707 3.17833 17.2828 7.28123 17.8377C7.23306 18.2579 7.20177 18.6832 7.20177 19.1163C7.20177 19.5659 7.23766 20.0067 7.28941 20.443C3.18264 20.994 0.000143555 24.5721 0.000143555 28.9003C0.000143555 29.5742 0.537008 30.1202 1.19863 30.1202C1.86025 30.1202 2.39712 29.5742 2.39712 28.9003C2.39712 25.7242 4.79453 23.1107 7.84372 22.8288C8.25963 24.007 8.86849 25.0912 9.63377 26.0465C6.74293 27.4242 4.79402 30.4122 4.79402 33.7799C4.79402 34.4538 5.33089 34.9999 5.99251 34.9999C6.65413 34.9999 7.191 34.4538 7.191 33.7799C7.191 31.0393 8.99476 28.648 11.5442 27.9128C13.3813 29.308 15.6051 30.0913 17.9818 30.0913C20.3425 30.0913 22.5795 29.337 24.4468 27.9107C27.0011 28.6429 28.8092 31.0361 28.8092 33.7801C28.8092 34.454 29.3461 35 30.0077 35C30.6693 35 31.2062 34.454 31.2062 33.7801C31.2062 30.4035 29.2467 27.4092 26.3433 26.0362C27.1129 25.0721 27.7149 23.9885 28.1253 22.8274C31.1892 23.0944 33.603 25.7137 33.603 28.9004C33.603 29.5743 34.1399 30.1203 34.8015 30.1203C35.4631 30.1203 36 29.5743 36 28.9004C35.9999 24.5642 32.8057 20.9804 28.6877 20.4395Z" fill="black"/>
<path d="M23.7223 30C21.9129 30.9274 19.8978 31.4276 17.8237 31.4276C15.7207 31.4276 13.7647 30.9246 12.0043 30.0339C11.8763 33.4258 14.6041 36.1233 17.8641 36.1233C21.1381 36.1233 23.8704 33.4042 23.7223 30Z" fill="black"/>
</g>
<defs>
<clipPath id="clip0_74_21">
<rect width="36" height="36" fill="white"/>
</clipPath>
</defs>
</svg>
