<svg width="36" height="36" viewBox="0 0 36 36" fill="none" xmlns="http://www.w3.org/2000/svg">
<g clip-path="url(#clip0_15_27)">
<path d="M3.98089 28.4515C5.54558 28.3924 6.62281 27.0352 6.79275 26.9041C6.96253 26.7718 6.94388 27.0921 6.84967 27.413C6.75513 27.7329 6.13114 29.4499 4.18846 30.0166C3.03648 30.3254 2.89248 31.0757 3.05593 31.6582C3.22669 32.2624 4.15733 33.0142 5.33509 32.8358C7.10912 32.5682 10.1718 31.1089 11.0741 26.1496C11.445 24.1106 12.0553 23.546 12.3192 23.5646C12.5835 23.5834 12.8661 24.0558 12.7907 25.752C12.7156 27.4504 12.715 30.8649 11.0554 33.091C10.6398 33.5439 10.0554 34.9205 11.0929 35.5622C12.1304 36.2037 13.2433 35.6948 14.3754 34.092C15.5071 32.4884 16.7492 24.3675 18.0003 24.3568C19.25 24.3675 20.4928 32.4883 21.6245 34.092C22.7571 35.6948 23.8698 36.2038 24.9078 35.5622C25.9453 34.9205 25.3599 33.5441 24.9454 33.091C23.2852 30.8649 23.2852 27.4504 23.2093 25.752C23.1338 24.0558 23.4167 23.5836 23.6811 23.5646C23.9451 23.5458 24.5548 24.1104 24.9258 26.1496C25.8289 31.1089 28.8914 32.5684 30.6656 32.8358C31.8418 33.0142 32.7732 32.2624 32.9436 31.6582C33.1076 31.0757 32.9641 30.3254 31.8111 30.0166C29.8681 29.4499 29.2451 27.7329 29.151 27.413C29.0575 27.0921 29.0377 26.7718 29.207 26.9041C29.3773 27.0352 30.4546 28.3924 32.0193 28.4515C35.4836 28.581 36.0184 25.585 35.9995 23.8678C35.9809 22.1506 34.695 20.9981 33.8491 20.4364C33.0944 19.9342 32.7156 20.0882 32.4938 20.4612C32.3996 20.6186 32.3029 21.2219 32.6042 21.4729C32.9488 21.7599 33.8686 22.4535 33.8493 23.435C33.8295 24.4156 33.1139 25.3978 31.9725 25.3985C29.8037 25.3996 27.4062 20.715 27.5812 20.3592C28.3432 19.076 30.7686 18.4596 30.6886 17.8585C30.2871 15.8124 25.7867 17.6226 25.1848 17.5421C24.9386 17.5094 24.9044 17.1011 24.9044 17.1011C24.8241 14.2522 27.0371 13.3636 27.0371 8.30583C27.0371 6.53926 25.3518 0 18.0003 0C10.6489 0 8.96358 6.53943 8.96358 8.30583C8.96358 13.3636 11.1767 14.2522 11.0962 17.1011C11.0962 17.1011 11.0616 17.5094 10.8151 17.5421C10.2134 17.6227 5.7139 15.8125 5.31272 17.8585C5.23147 18.4596 7.65674 19.0762 8.41921 20.3592C8.59386 20.7148 6.19632 25.3996 4.02841 25.3985C2.8868 25.398 2.17038 24.4156 2.15108 23.435C2.13227 22.4535 3.05204 21.7599 3.39598 21.4729C3.69744 21.2219 3.60063 20.6185 3.5069 20.4612C3.28377 20.0882 2.90561 19.934 2.15124 20.4364C1.30558 20.9979 0.0193267 22.1506 0.000516108 23.8678C-0.0192674 25.585 0.516023 28.581 3.98089 28.4515Z" fill="black"/>
</g>
<defs>
<clipPath id="clip0_15_27">
<rect width="36" height="36" fill="white"/>
</clipPath>
</defs>
</svg>
