<svg width="36" height="36" viewBox="0 0 36 36" fill="none" xmlns="http://www.w3.org/2000/svg">
<g clip-path="url(#clip0_79_73)">
<path d="M23.5504 18.155C21.8679 16.6118 21.3632 15.0686 21.3071 14.0398C21.251 13.3968 21.3632 12.6895 21.5314 12.0465C18.3347 11.8536 5.71595 11.7893 3.02396 22.0129C1.90229 26.2567 1.90229 29.0859 2.35096 31.0149C0.948877 31.1435 -2.1357 31.9794 -0.56537 34.4228C0.107629 35.4516 2.23879 34.5514 3.75304 33.7798C4.53821 34.5514 5.32337 34.7443 5.32337 34.7443C5.32337 34.7443 15.0258 36.4161 18.5029 35.9017C19.1199 35.8374 19.4003 34.9372 18.9516 34.4228C18.8394 34.2942 18.7273 34.2299 18.6151 34.1013C18.1664 33.7798 17.0448 33.4583 16.1474 33.2654C15.3062 33.0725 14.7454 32.1723 14.8014 31.2078C14.9697 29.1502 14.7454 25.2922 11.5486 22.9131C11.4364 22.7845 11.3804 22.5916 11.4925 22.463C11.6047 22.3344 11.7729 22.2701 11.8851 22.3987C15.3623 24.9707 15.5866 29.0859 15.4184 31.3364C15.3623 31.9794 15.7549 32.5581 16.3157 32.6867C16.8765 32.8153 17.7739 33.0725 18.4469 33.3297C18.4469 33.2654 18.4469 33.2654 18.4469 33.2011C18.7273 32.3009 19.232 31.3364 19.8489 32.8153C20.1854 33.5869 20.4098 34.1013 20.578 34.4871C20.8023 35.0658 21.251 35.5159 21.8118 35.7088C21.924 35.7731 22.0362 35.7731 22.1483 35.7731L25.8498 35.7088C26.4107 35.7088 26.9154 35.1301 26.8593 34.4871C26.8593 34.2299 26.7472 34.037 26.5228 33.9727C26.2424 33.9084 25.8498 33.7798 25.4012 33.7798C24.7282 33.7155 24.0552 33.3297 23.7187 32.6224C23.0457 31.2721 23.8308 28.8287 26.3546 26.1281C28.654 23.749 29.6074 22.1415 30 21.177C29.9439 21.177 29.8878 21.177 29.7757 21.177C27.7567 21.0484 25.7377 20.0839 23.5504 18.155Z" fill="black"/>
<path d="M34.0241 14.0049L32.1688 11.3258C30.707 9.30009 28.402 8.18924 26.2094 8.77734C26.0407 8.84268 25.9283 8.84268 25.7596 8.90802C22.6112 4.92202 19.6878 4.13789 18.4509 4.0072C18.1136 3.94186 17.8887 4.33393 18.0574 4.66065C18.5071 5.7715 19.3504 7.79717 19.5753 8.31993C20.4748 10.2149 22.3301 10.7377 23.1734 10.8684C21.8804 12.6326 21.8241 15.1157 24.2416 17.2721C29.8075 22.2383 32.6748 18.9057 32.6748 18.9057C36.9475 18.0562 34.0241 14.0049 34.0241 14.0049Z" fill="black"/>
<path d="M26.2239 8C26.4826 7.93348 26.7413 7.86696 27 7.86696C26.4826 6.93564 26.1722 5.87128 26.017 4.7404C25.5514 1.08166 23.3784 0.216872 22.6024 0.0173045C22.4471 -0.049218 22.2402 0.0838267 22.1885 0.283394C21.7746 1.54732 22.085 3.07734 22.7058 4.60735C23.7923 5.3391 24.9823 6.40346 26.2239 8Z" fill="black"/>
</g>
<defs>
<clipPath id="clip0_79_73">
<rect width="36" height="36" fill="white"/>
</clipPath>
</defs>
</svg>
