<svg width="36" height="36" viewBox="0 0 36 36" fill="none" xmlns="http://www.w3.org/2000/svg">
<g clip-path="url(#clip0_107_369)">
<path d="M35.5303 11.8873C33.2912 10.1335 29.6585 8.69772 24.503 10.7484C23.6457 9.81392 22.6664 9.07135 21.6023 8.54419C21.9779 7.69823 22.195 6.71363 22.195 5.65697C22.195 2.53318 20.3164 0 18.0005 0C15.6822 0 13.8044 2.53318 13.8044 5.65697C13.8044 6.71285 14.0231 7.69745 14.3963 8.54419C13.3338 9.07135 12.3537 9.81392 11.4965 10.7484C6.34013 8.69615 2.7074 10.1327 0.468347 11.8865C0.0515941 12.2132 -0.106867 12.7677 0.0737787 13.262C0.255217 13.7562 0.734562 14.0813 1.26699 14.0688C3.79999 14.0093 6.55564 14.9249 8.62672 15.8179C8.12282 17.3923 7.84234 19.1187 7.84234 20.9312C7.84234 24.0245 8.66 26.8631 10.0196 29.119C8.52848 30.9942 8.01427 33.0065 7.92712 34.7165C7.90018 35.2413 8.21789 35.7246 8.71309 35.9149C9.20828 36.1076 9.77161 35.9643 10.1131 35.5624C11.0258 34.4838 12.2222 33.5572 13.4558 32.7817C14.8249 33.6794 16.3652 34.1971 18.0013 34.1971C19.6366 34.1971 21.1776 33.6802 22.546 32.7817C23.7804 33.5572 24.9752 34.4838 25.8879 35.5624C26.2318 35.9658 26.7951 36.1076 27.2903 35.9149C27.7855 35.7254 28.1008 35.2421 28.0747 34.7165C27.9891 33.0065 27.4733 30.9942 25.9822 29.119C27.3418 26.8631 28.1594 24.0245 28.1594 20.9312C28.1594 19.1195 27.879 17.3907 27.3751 15.8179C29.4454 14.9241 32.2018 14.0093 34.7348 14.068C35.2664 14.0813 35.7466 13.7562 35.9272 13.2612C36.1063 12.7685 35.9478 12.2139 35.5303 11.8873Z" fill="black"/>
</g>
<defs>
<clipPath id="clip0_107_369">
<rect width="36" height="36" fill="white"/>
</clipPath>
</defs>
</svg>
