<svg width="36" height="36" viewBox="0 0 36 36" fill="none" xmlns="http://www.w3.org/2000/svg">
<g clip-path="url(#clip0_201_10)">
<path d="M32.0513 5.14644C32.0513 5.14644 32.0513 1.21512 30.5615 1.33452C29.0734 1.45427 30.5615 5.14644 30.5615 5.14644C30.5615 5.14644 28.8949 6.99548 28.2983 8.78186C27.7026 10.5686 25.9164 11.701 23.6524 12.4148C21.3892 13.13 14.4199 17.3596 14.4803 24.9838C14.5984 30.2254 13.5975 32.9653 0.434145 32.4294C-0.51875 32.4294 0.0703675 32.882 2.45867 33.6208C5.40762 34.5326 7.74759 34.6682 9.06005 34.6335C12.2172 34.5478 16.0389 33.847 17.7973 30.881C18.5306 29.7493 18.8878 29.7493 19.185 29.7493C19.4833 29.7493 20.0785 29.9279 20.5554 30.3441C21.0314 30.7613 21.4489 31.1783 21.4489 31.655C21.4489 32.1308 20.914 32.5037 20.615 33.2631C20.4183 33.7611 20.2572 34.6047 21.8054 34.6486C23.3557 34.6926 31.433 34.6486 31.433 34.6486C31.433 34.6486 32.5646 34.3943 32.6234 33.621C32.6835 32.8464 31.7903 32.4296 30.7774 32.4885C29.7646 32.5483 24.3069 32.9064 23.772 32.2509C23.2361 31.5948 23.0566 29.7493 24.0101 29.0338C24.963 28.3196 27.5959 25.3464 27.2853 21.9464C27.0297 19.1416 27.5149 18.8558 27.9172 18.7293C28.4393 18.5685 28.9732 18.6891 29.403 19.5217C29.8329 20.3542 29.9128 22.1286 30.7068 22.1546C31.4992 22.1818 31.5934 21.1744 31.5792 20.9049C31.5658 20.6366 31.6734 18.6741 29.2819 16.6585C29.0138 16.4439 28.718 16.0133 29.3223 15.0857C29.9272 14.1584 30.8401 12.8548 31.3111 10.2488C31.3911 9.72431 31.5393 9.52272 32.1704 9.52272C32.8023 9.52272 35.1532 9.54849 35.1532 9.54849C35.1532 9.54849 35.9995 9.48146 35.9995 8.89015C36 8.29918 33.6994 5.57927 32.0513 5.14644Z" fill="black"/>
</g>
<defs>
<clipPath id="clip0_201_10">
<rect width="36" height="36" fill="white"/>
</clipPath>
</defs>
</svg>
