<svg width="36" height="36" viewBox="0 0 36 36" fill="none" xmlns="http://www.w3.org/2000/svg">
<g clip-path="url(#clip0_201_12)">
<path d="M33.8805 4.85804L32.2965 2.548L30.9659 1.39483L30.9535 0.451849L30.3226 9.33707e-07L29.5307 1.68463L28.334 0.908599L27.9197 1.3297L28.3852 2.2631L21.5136 8.81453L10.6917 14.087L7.44532 14.8055L6.68155 15.1969L4.66516 17.8032L3.82779 20.6245L3.63113 22.1842L4.06537 23.1152L4.11127 22.7751L4.8847 19.9616L4.14662 25.6433L3.3094 28.2043L1.76343 36H3.1671L2.74273 35.2946L3.47999 31.57L6.26386 26.0108L5.75186 28.1006L7.92695 36H9.40616L8.78757 35.2127L7.7499 32.1176L7.31149 27.4692L8.90574 23.7971L9.86068 22.8654L14.2846 22.8719L15.0672 23.652L13.6366 34.3018L13.6937 36H15.1014L14.5823 35.2202L14.7759 31.1653L16.9355 23.7425L17.2007 23.7444L21.9405 36H23.3635L22.6406 35.2616L21.3521 31.7767L19.3318 22.9837L19.8674 18.4728L19.6051 17.2143L19.8517 16.3289L29.047 5.88873L30.4478 5.61513L33.9852 6.90235L34.2365 5.90507L33.8805 4.85804Z" fill="black"/>
</g>
<defs>
<clipPath id="clip0_201_12">
<rect width="36" height="36" fill="white"/>
</clipPath>
</defs>
</svg>
