<svg width="36" height="36" viewBox="0 0 36 36" fill="none" xmlns="http://www.w3.org/2000/svg">
<path d="M11.261 3.84383C13.3732 3.12568 15.6195 2.76661 17.9999 2.76661C20.3803 2.76661 22.6266 3.12568 24.7388 3.84383C25.4032 2.7451 26.6923 2 28.1737 2C30.3349 2 32.0868 3.58566 32.0868 5.54167C32.0868 6.12359 31.9317 6.67273 31.6569 7.15709C32.6262 7.89351 33.2912 10.1884 33.652 14.0417C33.9605 16.1725 35.9899 22.5889 35.9998 23.9583C36.0407 29.5961 30.0407 33.61 17.9999 36C5.99996 33.667 0 29.6531 0 23.9583C0.0370667 22.5041 1.95632 16.2381 2.34781 14.0417C2.81935 10.2954 3.49826 8.02439 4.38453 7.22855C4.08381 6.72702 3.91302 6.1524 3.91302 5.54167C3.91302 3.58566 5.66494 2 7.82604 2C9.30746 2 10.5966 2.7451 11.261 3.84383ZM14.0618 16.6589C12.6872 17.049 11.7843 18.2379 11.8741 19.5392L12.1799 23.968C12.372 26.7496 14.9206 28.9167 17.9999 28.9167C21.0792 28.9167 23.6278 26.7496 23.8198 23.968L24.1191 19.6342C24.2094 18.3265 23.2972 17.1332 21.9132 16.7488C20.5159 16.3607 19.119 16.1667 17.7225 16.1667C16.4383 16.1667 15.218 16.3307 14.0618 16.6589ZM25.8259 16.875C27.1226 16.875 28.1737 15.6065 28.1737 14.0417C28.1737 12.4769 27.1226 11.2083 25.8259 11.2083C24.5293 11.2083 23.4781 12.4769 23.4781 14.0417C23.4781 15.6065 24.5293 16.875 25.8259 16.875ZM10.1739 16.875C11.4705 16.875 12.5217 15.6065 12.5217 14.0417C12.5217 12.4769 11.4705 11.2083 10.1739 11.2083C8.87719 11.2083 7.82604 12.4769 7.82604 14.0417C7.82604 15.6065 8.87719 16.875 10.1739 16.875ZM20.4053 20.2105C19.0219 21.6483 16.7868 21.6425 15.4383 20.1977C14.09 18.7528 15.2219 17.5764 17.9537 17.5834C20.6856 17.5904 21.7887 18.7725 20.4053 20.2105Z" fill="black"/>
</svg>
