<svg width="36" height="36" viewBox="0 0 36 36" fill="none" xmlns="http://www.w3.org/2000/svg">
<g clip-path="url(#clip0_201_7)">
<path d="M18.9178 10.6708C18.6381 10.4247 17.1739 10.4271 17.0071 10.6708C16.6726 10.6708 16.1062 9.49828 16.2321 9.30126C15.6742 9.9722 15.1603 12.5279 15.6526 14.1036C12.5964 14.1036 6.76207 11.4096 3.19944 8.53202C1.97407 9.93108 -2.64348 18.331 2.08842 27.4817C2.44327 24.5664 4.75911 22.5939 6.76357 24.5487C6.7822 22.9749 9.02737 19.9363 11.3852 22.9841C13.1314 17.868 18.0155 23.4717 17.9926 26.7002C17.9926 23.4965 22.6282 17.9091 24.5538 22.9841C25.3969 21.0177 28.7876 21.1327 29.0465 24.5487C30.6511 23.5505 33.3683 24.0707 33.3683 27.2862C34.8558 26.7743 38.7264 16.2128 32.8531 8.51789C30.5805 10.1829 24.6733 14.1021 20.4382 14.1021C20.7475 12.0216 20.1393 10.0489 19.7515 9.29997C19.6744 9.82829 19.2242 10.6708 18.9178 10.6708Z" fill="black"/>
</g>
<defs>
<clipPath id="clip0_201_7">
<rect width="36" height="36" fill="white"/>
</clipPath>
</defs>
</svg>
