<svg width="36" height="36" viewBox="0 0 36 36" fill="none" xmlns="http://www.w3.org/2000/svg">
<path d="M35.0167 8.45437H34.4775C30.9251 7.35055 31.1789 6.09957 31.1789 6.09957C30.83 2.01546 27.1189 2.01546 27.1189 2.01546C21.7269 1.61073 21.7269 9.26383 23.0907 11.9866C24.4229 14.7093 20.9339 16.0339 16.9057 16.0339C11.0062 16.0339 1.39559 19.3453 1.39559 19.3453L3.71101 21.1482L0 22.6935C2.53744 23.4662 8.91278 26.8512 8.91278 26.8512C14.4634 30.5674 21.4414 30.8986 21.4414 30.8986C39.2035 32.4071 34.9216 16.6226 30.6714 14.7093C28.1974 13.6055 28.3559 11.729 28.3559 11.729C28.3559 11.2507 28.5463 10.9195 28.8317 10.662H35.0485C35.5559 10.662 36 10.1837 36 9.55818C35.9683 8.96948 35.5242 8.45437 35.0167 8.45437Z" fill="black"/>
</svg>
