<svg width="36" height="36" viewBox="0 0 36 36" fill="none" xmlns="http://www.w3.org/2000/svg">
<path d="M35.8172 11.5875L33.4547 9.85781C27.6187 5.23125 22.6125 12.0234 22.6125 12.0234C22.1344 6.00469 10.7156 5.03437 10.7156 5.03437C13.2609 7.84687 13.6687 9.37969 13.6687 10.0828C16.1156 10.1812 18.2812 11.9391 18.7734 14.4562C18.8297 14.7094 18.8578 14.9766 18.8719 15.2437L18.3375 15.2719C18.3234 15.0328 18.2953 14.7937 18.2531 14.5687C17.8031 12.2203 15.7219 10.6031 13.4156 10.6312C6.24375 12.3469 0.210938 9.77344 0.210938 9.77344C3.05156 18.7875 12.8391 20.0812 12.8391 20.0812C12.8531 20.5031 3.96563 28.2234 3.96563 28.2234L13.2609 30.9656C13.2609 30.7266 13.9359 26.0016 13.9359 26.0016C27.9562 27.45 28.4484 16.7062 28.4484 16.7062C29.5875 12.4875 32.4281 11.7141 33.4547 11.5875V11.6016H35.8172V11.5875ZM29.5453 10.6734C29.1938 10.6734 28.9125 10.3922 28.9125 10.0406C28.9125 9.68906 29.1938 9.40781 29.5453 9.40781C29.8969 9.40781 30.1781 9.68906 30.1781 10.0406C30.1781 10.3922 29.8969 10.6734 29.5453 10.6734Z" fill="black"/>
</svg>
