<svg width="36" height="36" viewBox="0 0 36 36" fill="none" xmlns="http://www.w3.org/2000/svg">
<path d="M29.9553 11.0267C30.386 10.3312 30.6892 9.61052 30.8287 8.90409C31.3879 6.08499 29.5642 2.84625 26.3463 1.62345C25.752 1.39711 25.4213 1.90357 25.7684 2.42213C26.6143 3.68114 27.3043 6.01685 26.0485 7.61977C25.9343 7.767 25.8101 7.89989 25.6837 8.02737L24.1348 6.93977H11.8652L10.3162 8.02744C10.1898 7.89996 10.0657 7.76707 9.9514 7.61984C8.69569 6.01692 9.38559 3.68121 10.2315 2.4222C10.5787 1.90364 10.248 1.39718 9.65363 1.62352C6.43577 2.84625 4.61208 6.08506 5.17127 8.90417C5.31077 9.61059 5.61403 10.3313 6.0447 11.0268L0 15.2708C0 15.2708 4.49888 19.7696 8.39355 16.6594C8.39355 18.8809 9.36584 21.4363 11.5324 22.9348L12.698 27.5809C11.2533 28.0116 10.1997 29.3486 10.1997 30.9329C10.1997 32.8653 11.7653 34.432 13.6978 34.432H22.3023C24.2347 34.432 25.8015 32.8654 25.8015 30.9329C25.8015 29.3486 24.7468 28.0116 23.3021 27.5809L24.4688 22.9348C26.6342 21.4362 27.6064 18.8809 27.6064 16.6594C31.5011 19.7696 36 15.2708 36 15.2708L29.9553 11.0267Z" fill="black"/>
</svg>
