<svg width="36" height="36" viewBox="0 0 36 36" fill="none" xmlns="http://www.w3.org/2000/svg">
<g clip-path="url(#clip0_211_75)">
<path d="M34.2951 12.2691L34.2764 12.1701L34.236 12.0774C34.1814 11.95 34.0989 11.7315 33.9941 11.4703C33.7074 10.7625 33.2506 9.72196 32.4039 8.77528C32.4051 8.7269 32.4068 8.67965 32.4068 8.62903C32.4074 6.24916 31.4402 4.08599 29.8802 2.52717C28.3213 0.967143 26.1577 -0.000567977 23.7778 -5.47696e-06C21.3979 -0.000567977 19.2348 0.967143 17.6759 2.52717C16.1165 4.08606 15.1481 6.24916 15.1487 8.62903C15.1481 9.41638 15.2414 10.0991 15.37 10.7312C15.4992 11.3639 15.6585 11.9448 15.803 12.5717C15.8553 12.8009 15.9208 12.9995 15.9851 13.1714C14.2794 13.0053 12.7314 12.9234 11.3386 12.9234C9.83152 12.9234 8.50536 13.0178 7.34921 13.2067C6.48212 13.3484 5.71008 13.543 5.02855 13.7961C4.00958 14.1762 3.17947 14.6905 2.58666 15.3851C2.29191 15.7316 2.0615 16.1224 1.90962 16.5423C1.75712 16.9623 1.68322 17.4082 1.68378 17.8611C1.68434 18.6394 1.8931 19.4325 2.26182 20.2409C2.63103 21.0499 3.16294 21.88 3.84856 22.7443C4.32816 23.3479 4.67691 23.794 4.97335 24.2326C5.27091 24.6724 5.52516 25.1116 5.82793 25.7414C6.77462 27.7122 8.10198 29.4304 9.80705 30.6644C10.8477 31.4194 12.0322 31.9855 13.3345 32.3109L11.5741 36H16.9017V34.382H14.1395L14.9958 32.5875C15.3115 32.6142 15.6318 32.6296 15.9579 32.6291C17.6948 32.6296 19.3436 32.2439 20.8245 31.5577L23.057 35.0658L27.4179 33.5274L26.8798 32.0015L23.7319 33.112L22.2441 30.7754C22.9359 30.3282 23.5788 29.8117 24.1569 29.233C26.2546 27.1376 27.5539 24.2326 27.5539 21.034H27.5534C27.5574 20.9528 27.5603 20.8714 27.5603 20.7883C27.5586 20.2097 27.4852 19.5537 27.4157 18.8914C27.3463 18.2327 27.2808 17.5726 27.2815 17.0754C27.2803 16.8148 27.3025 16.6054 27.3276 16.4911C28.5564 15.9353 29.6261 15.1023 30.4647 14.0725C31.2914 14.0464 32.0116 13.9849 32.5936 13.8779C32.7661 13.8455 32.9276 13.8097 33.0813 13.7659C33.3128 13.6976 33.5233 13.6242 33.7537 13.474C33.8686 13.3961 33.9927 13.2959 34.1081 13.1338C34.1651 13.053 34.2185 12.9552 34.256 12.8437C34.2947 12.7321 34.3169 12.607 34.3164 12.4836C34.3162 12.4085 34.3083 12.3363 34.2951 12.2691Z" fill="black"/>
</g>
<defs>
<clipPath id="clip0_211_75">
<rect width="36" height="36" fill="white"/>
</clipPath>
</defs>
</svg>
