<svg width="36" height="36" viewBox="0 0 36 36" fill="none" xmlns="http://www.w3.org/2000/svg">
<g clip-path="url(#clip0_211_78)">
<path d="M11.1441 9.02053C11.1441 8.26706 10.5315 7.65373 9.778 7.65373C9.02453 7.65373 8.41119 8.26706 8.41119 9.02053C8.41119 9.774 9.02446 10.3866 9.778 10.3866C10.5315 10.3866 11.1441 9.774 11.1441 9.02053Z" fill="black"/>
<path d="M25.8992 10.3866C26.6527 10.3866 27.2653 9.774 27.2653 9.02053C27.2653 8.26706 26.6527 7.65373 25.8992 7.65373C25.1457 7.65373 24.5324 8.26706 24.5324 9.02053C24.5324 9.774 25.1457 10.3866 25.8992 10.3866Z" fill="black"/>
<path d="M31.1371 13.0238C31.9877 11.9133 32.4988 10.5275 32.4988 9.02053C32.4988 5.37497 29.5439 2.42016 25.8991 2.42016C22.2535 2.42016 19.2987 5.37497 19.2987 9.02053C19.2987 9.05702 19.3038 9.09211 19.3045 9.12853H17.9998H16.3724C16.3724 9.09204 16.3775 9.05695 16.3775 9.02053C16.3775 5.37497 13.4226 2.42016 9.77783 2.42016C6.13227 2.42016 3.17746 5.37497 3.17746 9.02053C3.17746 10.613 3.74186 12.0739 4.68151 13.2144C-2.90007 21.2713 -3.10018 33.5798 17.9998 33.5798C39.2663 33.5798 38.8954 21.0756 31.1371 13.0238ZM25.8991 5.41076C27.8894 5.41076 29.5082 7.0302 29.5082 9.02046C29.5082 11.0107 27.8894 12.6295 25.8991 12.6295C23.9087 12.6295 22.2894 11.0108 22.2894 9.02046C22.2894 7.03013 23.9087 5.41076 25.8991 5.41076ZM21.971 17.7704C22.3324 17.7704 22.6252 18.0631 22.6252 18.4245C22.6252 18.786 22.3324 19.0787 21.971 19.0787C21.6096 19.0787 21.3168 18.786 21.3168 18.4245C21.3168 18.0631 21.6096 17.7704 21.971 17.7704ZM14.1207 17.7704C14.4821 17.7704 14.7749 18.0631 14.7749 18.4245C14.7749 18.786 14.4821 19.0787 14.1207 19.0787C13.7593 19.0787 13.4665 18.786 13.4665 18.4245C13.4665 18.0631 13.7593 17.7704 14.1207 17.7704ZM6.16813 9.02053C6.16813 7.0302 7.78757 5.41083 9.77783 5.41083C11.7682 5.41083 13.3869 7.03027 13.3869 9.02053C13.3869 11.0108 11.7682 12.6295 9.77783 12.6295C7.7875 12.6295 6.16813 11.0108 6.16813 9.02053Z" fill="black"/>
</g>
<defs>
<clipPath id="clip0_211_78">
<rect width="36" height="36" fill="white"/>
</clipPath>
</defs>
</svg>
