<svg width="36" height="36" viewBox="0 0 36 36" fill="none" xmlns="http://www.w3.org/2000/svg">
<g clip-path="url(#clip0_211_87)">
<path d="M14.3355 10.6948C14.7451 10.6948 15.0775 10.3625 15.0775 9.9528C15.0775 9.5426 14.7452 9.2103 14.3355 9.2103C13.9257 9.2103 13.5934 9.5426 13.5934 9.9528C13.5934 10.3625 13.9257 10.6948 14.3355 10.6948Z" fill="black"/>
<path d="M21.665 10.6948C22.0747 10.6948 22.4065 10.3625 22.4065 9.9528C22.4065 9.5426 22.0747 9.2103 21.665 9.2103C21.2548 9.2103 20.9225 9.5426 20.9225 9.9528C20.9225 10.3625 21.2548 10.6948 21.665 10.6948Z" fill="black"/>
<path d="M26.791 14.6794C28.8477 10.2581 27.5485 6.89653 25.5646 4.19287C26.2998 3.20372 25.793 0 25.793 0C25.793 0 20.1369 3.47632 17.9177 3.48623C15.699 3.49559 10.0128 0.068625 10.0128 0.068625C10.0128 0.068625 9.53354 3.27649 10.2776 4.25883C8.31692 6.9802 7.04686 10.3531 9.14253 14.7563C6.13252 18.9221 4.34581 25.937 11.555 32.3943C12.2071 33.1706 13.1148 33.0366 13.3708 32.1275C13.3708 32.1275 13.3874 36.0202 18.0589 35.9999C22.7306 35.9791 22.7139 32.0869 22.7139 32.0869C22.9771 32.9935 23.8864 33.1196 24.5318 32.3383C31.6837 25.8186 29.8368 18.8188 26.791 14.6794ZM21.665 7.03315C23.2772 7.03315 24.5847 8.34005 24.5847 9.9528C24.5847 11.5656 23.2772 12.8725 21.665 12.8725C20.0523 12.8725 18.7448 11.5656 18.7448 9.9528C18.7448 8.34005 20.0523 7.03315 21.665 7.03315ZM14.3355 7.03315C15.9482 7.03315 17.2551 8.34005 17.2551 9.9528C17.2551 11.5656 15.9481 12.8725 14.3355 12.8725C12.7228 12.8725 11.4158 11.5656 11.4158 9.9528C11.4157 8.34005 12.7227 7.03315 14.3355 7.03315ZM11.1961 27.0929C12.0451 25.5886 12.4895 23.4909 12.4875 21.4664C12.4886 19.8911 12.2212 18.3593 11.7087 17.192H11.7092L12.4881 16.8514C13.0624 18.1661 13.3376 19.7961 13.338 21.4665C13.3365 23.613 12.8827 25.825 11.9376 27.5104L11.1961 27.0929ZM17.1601 30.7301C16.8735 30.7301 16.6408 30.4976 16.6408 30.211C16.6383 29.9986 16.5832 29.8745 16.4944 29.7561C16.4051 29.6403 16.266 29.537 16.1049 29.4576C15.8728 29.3407 15.6081 29.2847 15.4731 29.2623V30.7484C15.4731 31.035 15.2409 31.2671 14.9539 31.2671C14.6673 31.2671 14.4352 31.035 14.4352 30.7484V29.2629C14.39 29.2696 14.3329 29.28 14.2637 29.2961C14.1002 29.334 13.8879 29.4035 13.7124 29.5064C13.594 29.5749 13.4937 29.6558 13.4221 29.7452C13.3282 29.8667 13.2699 29.9919 13.2669 30.211C13.2669 30.4976 13.0347 30.7301 12.7482 30.7301C12.4615 30.7301 12.2289 30.4976 12.2289 30.211C12.2263 29.7649 12.3841 29.3734 12.6142 29.093C12.8437 28.81 13.1277 28.6283 13.3926 28.5031C13.9227 28.257 14.3999 28.2206 14.4336 28.2155L14.456 28.2139H15.4529L15.4742 28.2155C15.4929 28.2176 15.6528 28.2315 15.8823 28.2861C16.1128 28.3406 16.4134 28.4335 16.7167 28.6085C16.9176 28.7254 17.1217 28.8806 17.2935 29.093C17.5236 29.3734 17.6819 29.7649 17.6788 30.211C17.6788 30.4975 17.4467 30.7301 17.1601 30.7301ZM18.0002 14.0839L16.5137 13.1752C16.5137 13.1752 17.0916 12.3496 18.0002 12.2671C18.9084 12.3496 19.4868 13.1752 19.4868 13.1752L18.0002 14.0839ZM23.4969 30.7301C23.2102 30.7301 22.9781 30.4976 22.9781 30.211C22.9755 29.9986 22.92 29.8745 22.8317 29.7561C22.7424 29.6403 22.6033 29.537 22.4423 29.4576C22.2102 29.3407 21.9449 29.2847 21.8105 29.2623V30.7484C21.8105 31.035 21.5779 31.2671 21.2912 31.2671C21.0046 31.2671 20.772 31.035 20.772 30.7484V29.2629C20.7274 29.2696 20.6703 29.28 20.6007 29.2961C20.4377 29.334 20.2253 29.4035 20.0493 29.5064C19.9314 29.5749 19.8312 29.6558 19.7596 29.7452C19.665 29.8667 19.6074 29.9919 19.6043 30.211C19.6043 30.4976 19.3722 30.7301 19.0851 30.7301C18.7985 30.7301 18.5663 30.4976 18.5663 30.211C18.5632 29.7649 18.7216 29.3734 18.9516 29.093C19.1811 28.81 19.4651 28.6283 19.7294 28.5031C20.2601 28.257 20.7373 28.2206 20.771 28.2155L20.7923 28.2139H21.7897L21.811 28.2155C21.8297 28.2176 21.9896 28.2315 22.2197 28.2861C22.4497 28.3406 22.7509 28.4335 23.0541 28.6085C23.2556 28.7254 23.4591 28.8806 23.631 29.093C23.861 29.3734 24.0188 29.7649 24.0163 30.211C24.0161 30.4975 23.7835 30.7301 23.4969 30.7301ZM24.0618 27.5103C23.1168 25.8249 22.663 23.6129 22.6609 21.4664C22.6619 19.796 22.9371 18.1661 23.5108 16.8514H23.5114L24.2903 17.192C23.7784 18.3592 23.5109 19.891 23.5119 21.4663C23.5098 23.4908 23.9543 25.5885 24.8033 27.0928L24.0618 27.5103Z" fill="black"/>
</g>
<defs>
<clipPath id="clip0_211_87">
<rect width="36" height="36" fill="white"/>
</clipPath>
</defs>
</svg>
