<svg width="36" height="36" viewBox="0 0 36 36" fill="none" xmlns="http://www.w3.org/2000/svg">
<g clip-path="url(#clip0_211_95)">
<path d="M12.5303 13.2664C12.5303 11.1914 11.5174 9.35733 9.96307 8.21714L11.0358 6.15818C11.2416 5.76176 11.0878 5.27421 10.6914 5.0677C10.2961 4.86126 9.80747 5.01504 9.60152 5.41146L8.54655 7.43618C7.83837 7.15873 7.07098 7.0013 6.26512 7.0013C5.40422 7.0013 4.5836 7.17581 3.83695 7.4894L2.46487 5.34811C2.22349 4.97243 1.72357 4.86232 1.34782 5.10377C0.971508 5.34515 0.862031 5.84451 1.10285 6.22083L2.44238 8.31058C0.959625 9.45668 0 11.2477 0 13.2664C0 16.7259 2.80568 19.5311 6.2652 19.5311C9.72464 19.5311 12.5303 16.7259 12.5303 13.2664Z" fill="black"/>
<path d="M16.2614 24.1212C15.7123 23.4851 15.0289 22.9402 14.1669 22.5497L14.1586 22.571C13.9385 23.1455 13.7485 23.6632 13.5681 24.081C13.4344 24.3934 13.3066 24.6478 13.1977 24.8253C13.116 24.959 13.0474 25.0484 13.0007 25.0999C12.9267 25.178 12.9219 25.1696 12.9202 25.1726C12.916 25.172 12.8876 25.1981 12.6859 25.2005C12.5481 25.1993 12.4356 25.1875 12.3327 25.171C11.87 25.7875 11.3375 26.3075 10.757 26.7252C9.53049 27.6098 8.12945 28.0748 6.80469 28.263C7.35791 28.9155 8.01582 29.5137 8.80866 29.9847C9.92452 30.6551 11.2854 31.0307 12.6858 31.0243C13.6958 31.0284 14.707 30.8036 15.5691 30.3598C16.3246 29.9752 16.943 29.445 17.4151 28.8984C17.6269 28.654 17.8127 28.4061 17.9772 28.1588C17.9571 28.0003 17.9359 27.8417 17.9056 27.6807C17.6731 26.4495 17.1512 25.1554 16.2614 24.1212Z" fill="black"/>
<path d="M34.4588 20.2884C33.04 19.5311 31.2768 20.067 30.5195 21.4853C30.2556 21.9793 30.0225 22.4574 29.806 22.8994C30.0651 23.0266 30.3515 23.1763 30.6556 23.3544C31.7549 24.0041 33.0696 24.9945 33.8731 26.4565C33.9878 26.6654 34.0872 26.8854 34.176 27.1138C34.3416 26.8215 34.4978 26.5316 34.6422 26.2506C35.0256 25.4997 35.3522 24.7963 35.6563 24.2288C36.4137 22.8101 35.8777 21.0457 34.4588 20.2884Z" fill="black"/>
<path d="M11.1991 24.4472C10.9406 24.1272 10.6654 23.668 10.4217 23.0775C10.159 22.4522 9.93891 21.6942 9.76257 20.8759C8.69818 21.3747 7.51601 21.6611 6.26522 21.6611C5.44805 21.6611 4.65999 21.5374 3.91327 21.3161C3.98668 21.7185 4.06711 22.1208 4.16119 22.5231C4.389 23.4918 4.68185 24.4562 5.07652 25.391C5.3096 25.9407 5.57883 26.4802 5.89538 27.0015C6.0256 26.9944 6.15336 26.9902 6.28596 26.9761C7.53134 26.8476 8.86559 26.4353 9.96964 25.6359C10.4216 25.3074 10.8352 24.914 11.1991 24.4472Z" fill="black"/>
<path d="M24.617 23.7277C25.0998 23.0349 25.3886 22.1988 25.5471 21.3776C25.6643 20.7735 25.7092 20.1825 25.7187 19.6725C25.5625 19.4754 25.3944 19.2795 25.2086 19.0879C24.6868 18.5489 24.0218 18.0394 23.2236 17.6827C22.4283 17.323 21.516 17.1336 20.5978 17.1366C20.0948 17.136 19.5937 17.1904 19.1074 17.3052C18.1956 17.5153 17.3572 17.9589 16.7152 18.5022C16.1491 18.9755 15.7219 19.5074 15.3852 20.0245C15.1018 20.4635 14.877 20.8937 14.6852 21.3085C15.7485 21.7848 16.6117 22.4622 17.2815 23.2462C18.0796 24.1781 18.6133 25.2466 18.9464 26.314C19.1215 25.9009 19.2718 25.5069 19.4109 25.143C19.6044 24.6312 19.7783 24.1768 19.9398 23.8206C20.0599 23.5531 20.1736 23.3426 20.2647 23.2029C20.3333 23.0976 20.3877 23.0319 20.4204 22.9994L20.4487 22.9734L20.4653 22.9693C20.4889 22.9651 20.531 22.9603 20.5978 22.9603C20.7883 22.9646 20.8102 22.9864 20.8504 23.0018C20.8835 23.0183 20.9415 23.0521 21.0498 23.1657C21.1427 23.2633 21.2652 23.4214 21.3995 23.6396C21.638 24.0195 21.9036 24.5769 22.1865 25.2242C22.2066 25.2703 22.2291 25.3218 22.2497 25.3685C22.3261 25.3472 22.4095 25.3312 22.4823 25.3075C23.4715 24.9797 24.1318 24.4212 24.617 23.7277Z" fill="black"/>
<path d="M31.0437 25.2371C30.4047 24.7353 29.7278 24.3567 29.1942 24.0963C29.1244 24.2241 29.0545 24.346 28.9883 24.4548C28.8273 24.7264 28.6818 24.9193 28.5718 25.0489L28.5398 25.0021C28.3303 24.6868 28.0534 24.1106 27.7493 23.4094C27.5186 22.8822 27.2642 22.2852 26.9506 21.6557C26.9293 21.6143 26.9044 21.5699 26.8819 21.5279C26.708 22.4935 26.3779 23.5259 25.7506 24.4519C25.1282 25.369 24.1933 26.1643 22.9011 26.5849L22.8076 26.6098C22.8384 26.676 22.8656 26.7387 22.8975 26.8062C23.1011 27.2275 23.3295 27.6641 23.6135 28.1091C23.8252 28.4428 24.0702 28.7812 24.3661 29.1149C24.8074 29.6119 25.3802 30.1048 26.102 30.4651C26.8203 30.8284 27.6747 31.0283 28.5125 31.0242C29.1089 31.0248 29.7053 30.9295 30.2543 30.7473C30.736 30.5887 31.1773 30.3675 31.5667 30.1136C32.2412 29.6717 32.7571 29.1445 33.176 28.6208C33.1181 28.0777 32.9524 27.5884 32.7121 27.1351C32.3158 26.3908 31.7028 25.7512 31.0437 25.2371Z" fill="black"/>
</g>
<defs>
<clipPath id="clip0_211_95">
<rect width="36" height="36" fill="white"/>
</clipPath>
</defs>
</svg>
