<svg width="36" height="36" viewBox="0 0 36 36" fill="none" xmlns="http://www.w3.org/2000/svg">
<path d="M19.2679 29.4248C18.7403 29.303 18.0614 29.3731 17.567 29.5945C17.091 29.8048 16.6888 30.1738 16.4416 30.6313C16.2793 30.9302 16.1871 31.2659 16.1723 31.6053C16.1501 32.1108 16.342 32.6679 16.6335 33.0886C16.7774 33.2952 16.9397 33.4649 17.0984 33.6014C17.353 33.8301 17.6555 33.9814 17.9765 34.0921C17.9839 34.0958 17.9839 34.0958 17.9839 34.0958C17.9839 34.0958 17.9802 34.0958 17.9765 34.0958C17.3825 33.9778 16.8475 33.69 16.4343 33.2472C16.2461 33.0443 16.069 32.8008 15.9251 32.5093C15.5524 31.7382 15.5967 30.9043 15.914 30.1295C16.2571 29.2956 17.0615 28.65 17.9138 28.4027C18.0983 28.3474 18.3049 28.3142 18.5004 28.2921C18.6406 28.2773 18.7771 28.2589 18.9136 28.2441C21.6182 25.8458 26.3113 24.0564 26.1047 18.9352C25.9018 13.8878 23.1456 11.1169 21.4853 9.89932C23.3043 9.55249 24.603 8.34968 24.603 8.34968L28.2078 10.6372C28.4107 10.7664 28.68 10.6926 28.787 10.4786L29.7685 8.53047C29.9087 8.25006 29.691 7.92168 29.3774 7.94382C28.2483 8.0213 26.0383 7.69661 23.9832 4.5752C21.7842 1.22872 18.6996 0.0222101 16.508 7.24268e-05C16.2719 -0.00361719 16.08 0.199312 16.0984 0.435447C16.1685 1.36892 16.0025 3.56793 12.9954 4.007C12.9032 4.02176 12.8183 4.06603 12.7556 4.13244C12.2022 4.73754 9.6711 7.83682 11.4126 12.423C11.8701 12.4119 12.3719 12.423 12.8995 12.4599C14.2979 12.5595 15.6999 12.8547 16.9729 13.4598C17.0466 13.493 17.1167 13.5299 17.1905 13.5668C17.9875 13.9727 18.718 14.5076 19.3268 15.1644C19.5039 15.3599 19.6699 15.5665 19.8323 15.7769C19.8692 15.8285 19.8987 15.8728 19.9245 15.906C19.9725 15.9761 19.9983 16.013 19.9983 16.013C19.9983 16.013 19.9651 15.9798 19.9061 15.917C19.8765 15.8875 19.8396 15.847 19.7954 15.8064C19.0021 15.0242 18.028 14.4449 16.9691 14.1054C15.6077 13.6664 14.1392 13.6 12.7223 13.7402C11.811 13.8324 10.8591 13.9763 9.98833 14.2715C8.37966 14.8212 7.09199 15.6809 6.34668 16.2528C6.06627 16.4668 6.17696 16.9096 6.52378 16.9723C10.1138 17.629 12.619 19.603 13.3496 20.2376C13.4824 20.352 13.6743 20.3704 13.8255 20.2782C14.4269 19.9129 15.8695 19.0348 15.8695 19.0385C17.5742 22.0566 15.0837 24.5581 14.0764 26.0967C12.8514 27.9636 11.8073 30.3693 12.5673 32.6458C13.2684 34.7378 15.3087 36.2468 17.5483 35.9664C18.3121 35.8705 19.05 35.5975 19.7289 35.2359C20.8764 34.6234 21.6807 33.6309 21.6291 32.2731C21.5739 30.8674 20.574 29.7236 19.2679 29.4248ZM19.456 5.2504C19.4339 4.74123 19.8324 4.30955 20.3415 4.2911C20.8507 4.26896 21.2824 4.66744 21.3008 5.17661C21.323 5.68577 20.9245 6.11746 20.4153 6.13591C19.9062 6.15801 19.4745 5.75957 19.456 5.2504Z" fill="black"/>
</svg>
