<svg width="36" height="36" viewBox="0 0 36 36" fill="none" xmlns="http://www.w3.org/2000/svg">
<path d="M19.2059 4.35122C19.2059 4.68633 19.4775 4.9583 19.8136 4.9583C20.1492 4.9583 20.4212 4.68633 20.4212 4.35122C20.4212 4.01562 20.1492 3.74358 19.8136 3.74358C19.4774 3.74358 19.2059 4.01569 19.2059 4.35122Z" fill="black"/>
<path d="M25.2359 13.098C24.8724 12.5478 22.5374 9.08663 22.3014 8.61476C22.0412 8.09409 21.6353 7.41931 21.347 7.57343C20.5167 7.75139 19.6147 7.79358 18.3226 6.61957C16.8963 5.32294 16.8958 2.99721 19.0034 2.24466C20.8176 1.59581 22.4702 3.8977 21.9516 4.80431C21.4624 5.66107 21.7807 6.70549 22.7301 6.46242C23.4353 5.8782 24.2128 5.54112 24.9332 5.45259C26.0331 5.31738 27.8498 6.61908 27.8498 5.84156C27.8498 5.06419 25.7112 3.50824 24.1557 3.11977C22.5998 2.7308 22.2759 -0.185836 18.1924 0.00942221C15.2798 0.147797 13.3965 3.11977 13.5262 6.48942C13.5745 7.74633 12.8956 9.43805 12.1482 11.6519C11.0199 14.9931 9.45782 17.3361 7.24494 20.33C5.04585 23.3056 4.24344 25.4031 5.8131 25.7971C6.77919 26.0396 9.15737 24.5919 11.2802 22.0222C11.0199 25.6669 11.4104 25.4066 10.8897 26.4479C9.49593 29.2354 9.97848 30.2228 12.5819 30.0926C12.7034 30.0866 13.4056 31.0242 13.64 31.2713C12.4959 31.5341 11.1851 31.8418 10.8775 31.943C10.307 32.1306 10.2714 32.9858 11.1897 32.8948C12.1089 32.8043 12.4227 33.4384 11.598 33.8146C10.7722 34.1909 11.0926 35.0716 11.987 34.5784C12.9836 34.0292 13.3059 34.5163 12.9231 34.9613C12.3866 35.5866 13.0751 36.3875 13.6157 35.7885C14.1572 35.1885 16.1066 33.0474 16.7031 32.3492C16.9416 32.0705 16.9716 31.6008 16.7652 31.2514C17.1054 31.1055 17.4043 30.9092 17.6153 30.6565C18.4833 29.6152 20.3921 30.0495 20.7394 30.7435C20.9072 31.079 21.4685 31.3303 22.1138 31.4243C22.0024 31.7442 22.0548 32.1143 22.2557 32.3493C22.8521 33.0474 24.8016 35.1886 25.3431 35.7886C25.8836 36.3876 26.5721 35.5867 26.0357 34.9613C25.6528 34.5164 25.9751 34.0293 26.9717 34.5784C27.8661 35.0717 28.1865 34.191 27.3607 33.8147C26.5359 33.4384 26.8497 32.8044 27.769 32.8949C28.6873 32.9858 28.6517 32.1307 28.0812 31.943C27.6647 31.8062 25.4112 31.2907 24.2219 31.0217C24.3047 30.9769 24.3881 30.9276 24.4731 30.8666C25.3446 30.237 27.0724 28.5774 26.9432 22.1889C28.6933 24.1074 30.4486 25.9196 30.9337 23.7372C31.5145 21.1243 28.4627 19.1585 25.2359 13.098ZM19.481 28.791C14.8854 28.791 14.6647 26.1606 14.6647 21.6317C14.6647 17.1023 16.8212 13.431 19.481 13.431C22.1409 13.431 24.2973 17.1022 24.2973 21.6317C24.2973 26.1607 24.0766 28.791 19.481 28.791Z" fill="black"/>
</svg>
