<svg width="36" height="36" viewBox="0 0 36 36" fill="none" xmlns="http://www.w3.org/2000/svg">
<path d="M15.7647 12.6567C16.153 11.8197 16.6354 11.1943 17.233 10.9019C15.6171 4.53648 12.1501 0.499788 11.9788 0.303547C11.6314 -0.0916036 11.0614 -0.102596 10.7009 0.280188C10.3417 0.6637 10.3324 1.29631 10.6786 1.6934C10.7192 1.74076 14.433 6.0837 15.7647 12.6567Z" fill="black"/>
<path d="M20.131 12.4237C21.5022 5.98121 25.1292 1.7402 25.1694 1.6934C25.5155 1.29631 25.5061 0.6637 25.147 0.280188C24.789 -0.102596 24.2179 -0.0916035 23.8692 0.303547C23.6984 0.49898 20.2588 4.50455 18.6346 10.8256C19.2404 11.0622 19.7318 11.6377 20.131 12.4237Z" fill="black"/>
<path d="M12.6346 23.0553C13.1983 23.0553 13.7197 22.8722 14.1691 22.5716C14.2148 20.7691 14.3773 17.8089 14.9256 15.2916C13.248 9.92494 8.64945 6.06436 3.22431 6.06436C1.44364 6.06436 0 7.65992 0 9.62839V14.4922C0 19.2213 3.46791 23.0553 7.74523 23.0553H12.6346Z" fill="black"/>
<path d="M12.1106 24.2114H7.45081C5.89627 24.2114 4.63622 25.6044 4.63622 27.3222C4.63622 32.1151 8.15018 36 12.4851 36C13.9241 36 15.09 34.7112 15.09 33.1208V33.0694C14.4137 30.4323 14.2198 27.1013 14.1695 25.1328C13.6342 24.5648 12.911 24.2114 12.1106 24.2114Z" fill="black"/>
<path d="M32.7768 6.06509C27.3518 6.06509 22.7521 9.92615 21.0747 15.2939C21.6226 17.8101 21.7851 20.768 21.8308 22.5701C22.2808 22.8717 22.8031 23.0553 23.3676 23.0553H28.2547C32.5331 23.0553 36 19.2214 36 14.4929V9.6284C36 7.66057 34.5562 6.06509 32.7768 6.06509Z" fill="black"/>
<path d="M28.5515 24.2107H23.8905C23.0895 24.2107 22.3657 24.5644 21.8304 25.1332C21.78 27.1006 21.5863 30.4288 20.9111 33.0649V33.1201C20.9111 34.7112 22.0768 36 23.5159 36C27.8508 36 31.3647 32.1151 31.3647 27.3222C31.3648 25.6038 30.1048 24.2107 28.5515 24.2107Z" fill="black"/>
<path d="M18 12.0375C16.5409 12.0375 15.3574 17.3245 15.3574 23.8457C15.3574 30.3668 16.5409 35.6536 18 35.6536C19.459 35.6536 20.6425 30.3667 20.6425 23.8457C20.6425 17.3245 19.459 12.0375 18 12.0375Z" fill="black"/>
</svg>
