<svg width="36" height="36" viewBox="0 0 36 36" fill="none" xmlns="http://www.w3.org/2000/svg">
<path d="M18.0916 0.181047L22.9091 3.20126H26.1818L31.0025 0.183781C31.7111 -0.25973 32.7273 0.163114 32.7273 0.90262V10.0343C32.7273 12.0077 31.0189 13.2705 29.4545 14.3337V25.0671L32.0727 31.6268L34.3833 32.5917C35.3747 33.0059 36.0006 33.8525 36 34.7782C36 35.4534 35.3455 36 34.5371 36H7.36364C3.32836 36 0 33.2668 0 29.7491C0 23.8165 1.48282 19.4094 2.43818 16.4438C2.91627 14.9597 3.38822 13.8461 3.72436 13.0791C3.91288 12.649 4.10163 12.2512 4.35273 11.8519C5.82166 9.51626 10.0616 11.2796 8.74473 13.6777C8.5851 13.9684 8.43655 14.2741 8.30945 14.5442C8.01082 15.1786 7.6091 16.165 7.17709 17.507C6.37201 20.0079 5.47855 23.7579 5.09891 28.8034C6.30327 23.173 13.0255 17.5206 18.4418 13.4727C17.3127 12.5817 16.3669 11.5048 16.3669 10.0343V0.899886C16.3669 0.160381 17.3835 -0.262913 18.0916 0.181047V0.181047Z" fill="black"/>
</svg>
