<svg width="36" height="36" viewBox="0 0 36 36" fill="none" xmlns="http://www.w3.org/2000/svg">
<g clip-path="url(#clip0_15_29)">
<path d="M35.8875 11.5875C35.6625 11.25 35.325 11.025 34.875 11.025H34.425L35.8875 8.325C36.1125 7.9875 36.1125 7.5375 35.8875 7.2C35.6625 6.8625 35.325 6.6375 34.875 6.6375H31.725C26.775 6.6375 22.275 9.225 19.575 13.725C19.575 13.8375 19.4625 13.8375 19.35 13.8375C19.2375 13.8375 19.2375 13.8375 19.125 13.725L16.3125 6.75C16.0875 6.3 15.8625 5.85 15.525 5.5125C17.55 5.175 19.125 3.2625 19.125 1.125C19.125 0.45 18.675 0 18 0H14.625C12.4875 0 10.6875 1.4625 10.2375 3.4875C8.325 3.825 6.75 5.175 6.075 6.975L0.5625 10.2375C0.225 10.4625 0 10.8 0 11.25C0 11.7 0.225 12.0375 0.5625 12.2625L3.375 13.95C3.375 14.85 3.0375 15.8625 2.475 16.65C1.8 17.55 1.6875 18.7875 2.1375 19.8C2.7 20.7 3.7125 21.375 4.8375 21.375C5.2875 21.375 5.7375 21.2625 6.075 21.15C7.0875 24.975 9.5625 28.125 13.05 30.0375L13.1625 30.15C15.075 31.1625 17.1 31.6125 19.125 31.6125V33.8625H16.875C16.2 33.8625 15.75 34.3125 15.75 34.9875C15.75 35.6625 16.2 36.1125 16.875 36.1125H22.5C23.175 36.1125 23.625 35.6625 23.625 34.9875C23.625 34.3125 23.175 33.8625 22.5 33.8625H21.375V31.3875C22.725 31.1625 24.075 30.7125 25.3125 30.0375L25.425 29.925C28.8 28.125 31.275 24.975 32.4 21.15C33.3 17.8875 34.425 15.1875 35.775 12.825L35.8875 12.7125C36 12.375 36 11.925 35.8875 11.5875ZM5.625 12.6L3.2625 11.25L5.625 9.9V12.6ZM11.25 10.125C10.575 10.125 10.125 9.5625 10.125 9C10.125 8.4375 10.6875 7.875 11.25 7.875C11.8125 7.875 12.375 8.4375 12.375 9C12.375 9.5625 11.8125 10.125 11.25 10.125ZM27 21.375H26.4375C25.3125 24.075 22.725 25.875 19.6875 25.875C15.6375 25.875 12.375 22.6125 12.375 18.5625V18C12.375 17.325 12.825 16.875 13.5 16.875C14.175 16.875 14.625 17.325 14.625 18V18.5625C14.625 21.375 16.875 23.625 19.6875 23.625C21.375 23.625 22.95 22.725 23.85 21.375H21.375C20.7 21.375 20.25 20.925 20.25 20.25C20.25 19.575 20.7 19.125 21.375 19.125H27C27.675 19.125 28.125 19.575 28.125 20.25C28.125 20.925 27.675 21.375 27 21.375Z" fill="black"/>
</g>
<defs>
<clipPath id="clip0_15_29">
<rect width="36" height="36" fill="white"/>
</clipPath>
</defs>
</svg>
