<svg width="36" height="36" viewBox="0 0 36 36" fill="none" xmlns="http://www.w3.org/2000/svg">
<path d="M34 18.7704C34 20.2981 32.8785 20.5013 31.5 20.5013H29.7022C29.3555 19.2316 28.7172 18.0543 27.8493 17.0197C28.6807 16.31 29.3244 15.3438 29.6827 14.2281C33.6651 13.3606 36 9.45109 36 5.54078C36 1.10818 33 0 33 0C33 3.32453 31 5.54089 31 5.54089V1.10818C26 2.21635 26 9.9736 26 12.19C26 13.1065 25.3271 13.8522 24.5 13.8522H23.502C22.8481 13.5713 22.159 13.3394 21.4419 13.1612C21.7082 12.3949 21.9119 11.4361 21.9772 10.2442C22.5872 9.86455 23.0001 9.14191 23.0001 8.31144C23.0001 7.08746 22.1046 6.09509 21.0001 6.09509C19.8955 6.09509 19.0001 7.08746 19.0001 8.31144C19.0001 9.11952 19.3916 9.82455 19.9747 10.2117C19.8989 11.3959 19.659 12.2327 19.3949 12.8115C18.9372 12.7675 18.472 12.7442 18.0001 12.7442C17.5282 12.7442 17.063 12.7675 16.6053 12.8115C16.3412 12.2327 16.1013 11.3959 16.0255 10.2117C16.6086 9.82444 17.0001 9.11952 17.0001 8.31144C17.0001 7.08746 16.1047 6.09509 15.0001 6.09509C13.8956 6.09509 13.0001 7.08746 13.0001 8.31144C13.0001 9.14191 13.413 9.86466 14.023 10.2442C14.0882 11.4361 14.2919 12.395 14.5583 13.1612C13.8412 13.3394 13.1521 13.5714 12.4982 13.8522H11.5C10.6729 13.8522 10 13.1065 10 12.19C10 9.9736 10 2.21635 5 1.10818V5.54089C5 5.54089 3 3.32453 3 0C3 0 0 1.10818 0 5.54078C0 9.45109 2.3349 13.3605 6.3174 14.228C6.6757 15.3437 7.3194 16.31 8.1508 17.0196C7.2828 18.0541 6.6445 19.2315 6.2979 20.5012H4.5C3.1215 20.5012 2 19.2584 2 17.7307V16C1.5 14.5397 0.5 14.5397 0 16V17.7307C0 20.4804 2.0187 22.7175 4.5 22.7175H6C6 23.4793 6.1032 24.221 6.2979 24.9339H4.5C2.0187 24.9339 0 25.7223 0 28.4721V31.2425C0.5 32.5514 1.5 32.5514 2 31.2425V28.4721C2 26.9444 3.1215 27.1502 4.5 27.1502H7.2483C7.5246 27.6122 7.8421 28.0541 8.198 28.4721C6.3496 29.0925 5 30.443 5 32.6911V34.3534C5.5 35.9458 6.5 35.9458 7 34.3534V32.6911C7 31.1635 8.1215 30.4749 9.5 30.4749H10.4582C12.519 31.8607 15.1426 32.6912 18 32.6912C20.8573 32.6912 23.4809 31.8607 25.5418 30.4749H26.5C27.8785 30.4749 29 31.1635 29 32.6911V34.3534C29.5 35.9458 30.5 35.9458 31 34.3534V32.6911C31 30.443 29.6504 29.0924 27.802 28.4722C28.1579 28.0543 28.4754 27.6123 28.7517 27.1503H31.5C32.8785 27.1503 34 26.9444 34 28.4721V31.2425C34.5 32.5513 35.5 32.5513 36 31.2425V28.4721C36 25.7223 33.9814 24.934 31.5 24.934H29.7022C29.8968 24.2211 30 23.4794 30 22.7176H31.5C33.9814 22.7176 36 21.5202 36 18.7704V16C35.5 14.5396 34.5 14.5396 34 16V18.7704Z" fill="black"/>
</svg>
