<svg width="36" height="36" viewBox="0 0 36 36" fill="none" xmlns="http://www.w3.org/2000/svg">
<g clip-path="url(#clip0_64_255)">
<path d="M32.8804 16.0828H14.9701L11.5671 12L10.7611 13.5266L10.5373 14.6627C10.4029 15.3373 9.73129 15.8698 8.9701 15.8698H6.64176C6.41788 15.8698 6.194 15.8343 6.01489 15.7633C6.01489 17.9645 6.01489 20.4852 6.01489 20.5207L1.44776 24.1775C1.13433 24.426 1 24.7456 1 25.0651C1 25.3846 1.13433 25.7041 1.44776 25.9527L4.94027 28.7219C5.56714 29.2189 6.55221 29.2189 7.13429 28.7219C7.76115 28.2249 7.76115 27.4438 7.13429 26.9822L4.76117 25.1006L7.26862 23.1124C7.89548 23.6805 8.70145 24.142 9.59696 24.3905V34.7574C9.59696 35.432 10.3134 36 11.1641 36C12.0149 36 12.7313 35.432 12.7313 34.7574V24.6035H20.1641L24.4178 27.9763L19.985 34.0828C19.5372 34.6864 19.8059 35.432 20.567 35.787C21.3282 36.142 22.2685 35.929 22.7163 35.3254L27.3282 29.0059C27.4625 28.8284 27.5073 28.6154 27.5521 28.4024V24.7456L31.5819 27.9408V34.7574C31.5819 35.432 32.2983 35.9645 33.1491 35.9645C33.9998 35.9645 34.7162 35.3964 34.7162 34.7219V18.9231C35.7013 18.9231 36 18.5 36 18V17C36 16 34.7162 16.0828 34.7162 16.0828H32.8804Z" fill="black"/>
<path d="M15 0.802139C15 0.360963 14.625 0 14.1667 0C13.7083 0 13.3333 0.360963 13.3333 0.802139C13.3333 2.00535 12.9583 3.12834 12.25 4.09091C11.5833 3.12834 11.2083 2.00535 11.2083 0.842246C11.2083 0.40107 10.8333 0.0401071 10.375 0.0401071C9.91667 0.0401071 9.54167 0.40107 9.54167 0.842246C9.54167 2.48663 10.0833 4.0508 11.125 5.29412C10.125 6.09626 8.83333 6.53743 7.45833 6.57754C6.08333 6.53743 4.83333 6.05615 3.83333 5.29412C4.875 4.0107 5.41667 2.44652 5.41667 0.802139C5.41667 0.360963 5.04167 0 4.58333 0C4.125 0 3.75 0.360963 3.75 0.802139C3.75 1.96524 3.375 3.12834 2.70833 4.0508C2.04167 3.12834 1.66667 2.00535 1.66667 0.802139C1.66667 0.360963 1.29167 0 0.833333 0C0.375 0 0 0.360963 0 0.802139C0 3.12834 1.125 5.2139 2.91667 6.53743H0.833333C0.833333 7.70053 1.83333 8.6631 3.04167 8.6631H3.66667L5.54167 12.9144L5.75 14.3182C5.79167 14.6791 6.08333 15 6.375 15H8.54167C8.83333 15 9.125 14.7193 9.16667 14.3182L9.375 12.9144L11.25 8.6631H11.875C13.0833 8.6631 14.0833 7.70053 14.0833 6.53743H12C13.875 5.2139 15 3.12834 15 0.802139Z" fill="black"/>
</g>
<defs>
<clipPath id="clip0_64_255">
<rect width="36" height="36" fill="white"/>
</clipPath>
</defs>
</svg>
