<svg width="36" height="36" viewBox="0 0 36 36" fill="none" xmlns="http://www.w3.org/2000/svg">
<path d="M22.2147 26.3535L26.3724 31.8056L25.6591 35.7187H20.1288C19.5595 35.7187 19.098 35.2572 19.098 34.688C19.098 34.2974 19.3185 33.9407 19.6678 33.766L20.2042 33.498L19.4169 28.7748C20.4667 28.1105 21.4103 27.2933 22.2147 26.3535ZM9.65011 30.2595L8.17735 32.6734L9.69582 35.7102H15.2266C15.2266 34.8397 14.8168 34.0201 14.1204 33.4979L16.0252 30.2612C15.0074 30.5336 13.9386 30.6799 12.8358 30.6799C11.7546 30.6799 10.683 30.5362 9.65011 30.2595ZM28.4168 13.6412C29.2499 14.0459 31.1735 14.6472 33.1258 14.1559C33.5448 14.0504 34.5727 13.5987 35.208 12.7131C36.0075 11.5987 35.8016 10.0091 34.7224 9.16256L33.478 6.95024V4.73779L32.6485 4.32295L28.1083 0.936697C27.115 0.140197 26.1772 0.0396504 25.2896 0.801135L21.8602 4.01948C21.6543 3.9936 21.4466 3.97743 21.2372 3.97743C20.6371 3.97743 20.0274 4.08529 19.4341 4.31338C18.5686 4.64526 17.8121 5.20931 17.2481 5.94224L11.3549 13.587C11.3549 13.587 9.27619 13.587 9.13346 13.587C4.89418 13.587 1.45758 17.0236 1.45758 21.2629C1.45758 23.0133 2.04469 24.6254 3.03118 25.9162L0.679082 30.1061C0.258754 30.8541 0.190972 31.7488 0.491066 32.5507L1.67879 35.7185H7.48744V35.7102C7.48463 34.8391 7.074 34.0206 6.37707 33.4979L9.15075 28.9543C10.4473 29.4016 13.2729 30.0648 16.4097 28.9936C19.6307 27.8938 21.3188 25.8067 22.2144 24.5296L29.0533 33.4979L28.514 33.7674C28.1669 33.9417 27.9471 34.297 27.9471 34.6856C27.9471 35.251 28.4061 35.7102 28.9717 35.7116L35.0556 35.7185L35.6212 32.7402C35.7055 32.2964 35.6612 31.84 35.4926 31.4211L28.4168 13.6412Z" fill="black"/>
</svg>
