<svg width="36" height="36" viewBox="0 0 36 36" fill="none" xmlns="http://www.w3.org/2000/svg">
<path d="M16.8167 11.99C17.5515 12.3787 18.4239 12.5996 19.4135 12.5996C21.0187 12.5996 22.3604 12.0474 23.2912 11.0812C24.2037 10.1341 24.624 8.89153 24.624 7.65C24.624 6.90442 23.9877 6.3 23.2029 6.3C22.4181 6.3 21.7819 6.90442 21.7819 7.65C21.7819 8.32842 21.5538 8.88563 21.1947 9.25832C20.8539 9.612 20.301 9.8996 19.4135 9.8996C18.5635 9.8996 18.0294 9.60793 17.6817 9.23258C17.3317 8.85492 17.1055 8.31739 17.0526 7.72128V4.05004C17.0526 1.81433 18.9585 5.40489e-05 21.3141 3.60489e-05L27.3498 0C28.3146 0 29.2585 0.254448 30.0793 0.734292L35.3238 3.80027C35.744 4.04597 36 4.48119 36 4.95V7.65C36 9.88675 34.0912 11.7 31.7368 11.7H31.2632V28.8592C33.0052 29.0187 34.3294 29.5187 35.1419 30.5955C35.6283 31.2403 35.8247 31.9635 35.9144 32.6263C36.0002 33.26 36 33.9516 36 34.5892V34.65C36 35.3956 35.3637 36 34.5789 36H28.4178V34.6061C28.4184 33.5774 28.4203 30.632 25.5757 28.903V23.8549C25.5757 23.1093 24.9395 22.5049 24.1547 22.5049C23.3697 22.5049 22.7336 23.1093 22.7336 23.8549V27.934C22.4257 27.9022 22.1093 27.8874 21.7863 27.8874C21.647 27.8874 21.5106 27.891 21.4124 27.8946C21.3626 27.8962 21.3205 27.898 21.2904 27.8993L21.2544 27.9011L21.2438 27.9016L21.2387 27.9018C20.455 27.9423 19.8542 28.5786 19.8968 29.3231C19.9395 30.0676 20.6098 30.6383 21.3935 30.5978L21.3988 30.5975L21.4236 30.5964L21.517 30.5926C21.5966 30.5899 21.6953 30.5874 21.7863 30.5874C22.6042 30.5874 23.1412 30.7186 23.4928 30.8945C23.5133 30.9047 23.534 30.9145 23.5548 30.9236C25.5238 31.7945 25.5757 33.5138 25.5757 34.6498V36H7.26315C3.25182 36 0 32.9108 0 29.1001C0 26.5835 1.41899 24.3832 3.53151 23.1793C4.20455 22.7959 5.07742 23.0033 5.48111 23.6426C5.88481 24.282 5.66644 25.1113 4.99341 25.4948C3.70154 26.2309 2.84211 27.5708 2.84211 29.1001C2.84211 31.4195 4.82148 33.3 7.26315 33.3C7.86672 33.3 8.24205 33.1502 8.49149 32.9836C8.75524 32.8072 8.9614 32.5548 9.12028 32.2502C9.28038 31.9435 9.37279 31.6208 9.42351 31.3637C9.44826 31.2383 9.46152 31.1366 9.46838 31.0712C9.47133 31.0428 9.47306 31.0217 9.47397 31.0091L9.4748 30.9465C9.47586 30.8855 9.47793 30.7987 9.48195 30.6887C9.48996 30.4691 9.5058 30.1563 9.53712 29.7715C9.59961 29.0038 9.72445 27.9401 9.97511 26.7529C10.466 24.4273 11.4831 21.4101 13.6726 19.3018C15.2793 17.7548 16.1526 15.4881 16.6043 13.2466C16.6907 12.8181 16.7605 12.397 16.8167 11.99Z" fill="#212121"/>
</svg>
