<svg width="512" height="512" viewBox="0 0 512 512" fill="none" xmlns="http://www.w3.org/2000/svg">
<path d="M144 252.831H364C359.73 237.791 351.423 225.27 336 219.932C323.752 215.693 308.779 217.831 296 217.831H220C204.931 217.831 186.41 214.944 172 219.932C157.046 225.108 147.484 237.772 144 252.831Z" fill="#010101"/>
<path d="M150 242L151 243L150 242ZM357 242L358 243L357 242Z" fill="#646464"/>
<path d="M149 243L150 244L149 243Z" fill="#A1A1A1"/>
<path d="M149 244L150 245L149 244ZM358 244L359 245L358 244Z" fill="#303030"/>
<path d="M148 245L149 246L148 245ZM359 245L360 246L359 245Z" fill="#A1A1A1"/>
<path d="M148 246L149 247L148 246ZM359 246L360 247L359 246Z" fill="#303030"/>
<path d="M147 247L148 248L147 247ZM360 247L361 248L360 247Z" fill="#A1A1A1"/>
<path d="M360 248L361 249L360 248Z" fill="#303030"/>
<path d="M146 249L147 250L146 249ZM361 249L362 250L361 249Z" fill="#A1A1A1"/>
<path d="M146 250L147 251L146 250ZM361 250L362 251L361 250Z" fill="#303030"/>
<path d="M145 251L146 252L145 251Z" fill="#A1A1A1"/>
<path d="M145 252L146 253L145 252Z" fill="#646464"/>
<path d="M362 252L363 253L362 252Z" fill="#A1A1A1"/>
<path d="M145 253L146 254L145 253ZM362 253L363 254L362 253Z" fill="#303030"/>
<path d="M144 254L145 255L144 254Z" fill="#A1A1A1"/>
<path d="M144 255L145 256L144 255Z" fill="#646464"/>
<path d="M363 255L364 256L363 255Z" fill="#A1A1A1"/>
<path d="M144 256L145 257L144 256Z" fill="#303030"/>
<path d="M363 256L364 257L363 256Z" fill="#646464"/>
<path d="M363 257L364 258L363 257Z" fill="#303030"/>
<path d="M93.1857 440.243H415.186L430.188 284.243C430.528 279.85 430.738 274.99 427.758 271.352C422.968 265.5 410.898 267.243 404.186 267.243H380.186H356.186H157.186H104.186C97.4807 267.243 88.4038 265.502 83.6193 271.352C80.6418 274.992 80.8485 279.85 81.1865 284.243C93.1857 440.243 93.1857 440.243 93.1857 440.243Z" fill="#010101"/>
<path d="M92.5415 454C92.5415 463.936 88.8913 482.225 100.545 486.852C107.761 489.717 117.894 488 125.541 488H178.541H337.541H384.541C391.377 488 400.071 489.401 406.54 486.852C418.35 482.198 414.541 464.116 414.541 454H92.5415Z" fill="#010101"/>
<path d="M249.257 24.6564C223.885 27.9959 201.463 36.8166 184.722 57.232C134.529 118.441 186.973 212.56 265.257 202.946C304.96 198.07 339.045 165.647 343.086 125.232C348.265 73.4369 305.304 17.2794 249.257 24.6564Z" fill="#010101"/>
<circle cx="254" cy="355" r="70" fill="white"/>
<path d="M254 285C215.34 285 184 316.34 184 355C184 393.66 215.34 425 254 425C292.66 425 324 393.66 324 355C324 316.34 292.66 285 254 285ZM278.642 358.096L244.553 381.303C243.406 382.083 241.921 382.166 240.694 381.517C239.467 380.868 238.7 379.594 238.7 378.206V331.794C238.7 330.406 239.467 329.132 240.694 328.483C241.921 327.834 243.406 327.916 244.553 328.697L278.642 351.904C279.667 352.601 280.28 353.76 280.28 355C280.28 356.24 279.667 357.399 278.642 358.096Z" fill="#2B8490"/>
</svg>
