<svg width="1647" height="506" viewBox="0 0 1647 506" fill="none" xmlns="http://www.w3.org/2000/svg">
<path d="M63 228.831H283C278.73 213.791 270.423 201.27 255 195.932C242.752 191.693 227.779 193.831 215 193.831H139C123.931 193.831 105.41 190.944 91 195.932C76.046 201.108 66.484 213.772 63 228.831Z" fill="#010101"/>
<path d="M69 218L70 219L69 218ZM276 218L277 219L276 218Z" fill="#646464"/>
<path d="M68 219L69 220L68 219Z" fill="#A1A1A1"/>
<path d="M68 220L69 221L68 220ZM277 220L278 221L277 220Z" fill="#303030"/>
<path d="M67 221L68 222L67 221ZM278 221L279 222L278 221Z" fill="#A1A1A1"/>
<path d="M67 222L68 223L67 222ZM278 222L279 223L278 222Z" fill="#303030"/>
<path d="M66 223L67 224L66 223ZM279 223L280 224L279 223Z" fill="#A1A1A1"/>
<path d="M279 224L280 225L279 224Z" fill="#303030"/>
<path d="M65 225L66 226L65 225ZM280 225L281 226L280 225Z" fill="#A1A1A1"/>
<path d="M65 226L66 227L65 226ZM280 226L281 227L280 226Z" fill="#303030"/>
<path d="M64 227L65 228L64 227Z" fill="#A1A1A1"/>
<path d="M64 228L65 229L64 228Z" fill="#646464"/>
<path d="M281 228L282 229L281 228Z" fill="#A1A1A1"/>
<path d="M64 229L65 230L64 229ZM281 229L282 230L281 229Z" fill="#303030"/>
<path d="M63 230L64 231L63 230Z" fill="#A1A1A1"/>
<path d="M63 231L64 232L63 231Z" fill="#646464"/>
<path d="M282 231L283 232L282 231Z" fill="#A1A1A1"/>
<path d="M63 232L64 233L63 232Z" fill="#303030"/>
<path d="M282 232L283 233L282 232Z" fill="#646464"/>
<path d="M282 233L283 234L282 233Z" fill="#303030"/>
<path d="M12.1857 416.243H334.186L349.188 260.243C349.528 255.85 349.738 250.99 346.758 247.352C341.968 241.5 329.898 243.243 323.186 243.243H299.186H275.186H76.1857H23.1857C16.4807 243.243 7.40375 241.502 2.61925 247.352C-0.358246 250.992 -0.151452 255.85 0.186454 260.243C12.1857 416.243 12.1857 416.243 12.1857 416.243Z" fill="#010101"/>
<path d="M11.5415 430C11.5415 439.936 7.89128 458.225 19.5455 462.852C26.7615 465.717 36.8945 464 44.5415 464H97.5415H256.541H303.541C310.377 464 319.071 465.401 325.54 462.852C337.35 458.198 333.541 440.116 333.541 430H11.5415Z" fill="#010101"/>
<path d="M168.257 0.656353C142.885 3.99585 120.463 12.8166 103.722 33.232C53.5294 94.441 105.973 188.56 184.257 178.946C223.96 174.07 258.045 141.647 262.086 101.232C267.265 49.4369 224.304 -6.72065 168.257 0.656353Z" fill="#010101"/>
<path d="M547.323 177.4C555.723 175.2 563.423 174.1 570.423 174.1C588.823 174.1 598.023 180.3 598.023 192.7C598.023 211.9 591.423 239.2 578.223 274.6C565.023 309.8 551.723 336.6 538.323 355C527.723 369.6 514.123 376.9 497.523 376.9C488.723 376.9 481.423 376.2 475.623 374.8C469.223 343.2 459.323 308.8 445.923 271.6C432.723 234.4 420.323 208.2 408.723 193C420.923 181.8 432.223 176.2 442.623 176.2C449.823 176.2 455.423 179.5 459.423 186.1C473.623 209.9 488.623 261.7 504.423 341.5C514.223 325.3 524.123 302.3 534.123 272.5C544.123 242.5 549.123 216.7 549.123 195.1C549.123 188.7 548.523 182.8 547.323 177.4ZM638.523 220C630.923 220 624.423 217.4 619.023 212.2C613.823 206.8 611.223 200 611.223 191.8C611.223 184 614.023 177.4 619.623 172C625.223 166.6 631.723 163.9 639.123 163.9C646.523 163.9 652.823 166.6 658.023 172C663.423 177.4 666.123 184 666.123 191.8C666.123 199.8 663.323 206.5 657.723 211.9C652.123 217.3 645.723 220 638.523 220ZM639.123 232.6C646.723 232.6 652.623 233.9 656.823 236.5C661.023 239.1 663.123 244.2 663.123 251.8C663.123 253 662.723 261.8 661.923 278.2C661.323 294.6 661.023 306.9 661.023 315.1C661.023 343.5 662.723 362.8 666.123 373C657.723 375.6 649.423 376.9 641.223 376.9C631.823 376.9 625.223 375.3 621.423 372.1C617.823 368.7 616.023 363.8 616.023 357.4C616.023 354.2 616.123 346.7 616.323 334.9C616.723 323.1 616.923 313.7 616.923 306.7C616.923 278.1 616.223 254.7 614.823 236.5C622.423 233.9 630.523 232.6 639.123 232.6ZM685.874 304.9C685.874 284.3 691.574 266.8 702.974 252.4C714.374 237.8 728.574 230.5 745.574 230.5C756.774 230.5 768.074 233.9 779.474 240.7C779.874 227.9 780.074 217.8 780.074 210.4C780.074 188.6 779.274 170.8 777.674 157C786.874 154.4 793.574 153.1 797.774 153.1C816.374 153.1 825.674 159.5 825.674 172.3C825.674 184.1 825.174 206.8 824.174 240.4C823.374 274 822.974 296.9 822.974 309.1C822.974 340.7 824.874 362.5 828.674 374.5C819.074 376.9 811.274 378.1 805.274 378.1C796.874 378.1 790.874 376.6 787.274 373.6C783.674 370.4 781.274 366.1 780.074 360.7C774.874 366.1 768.774 370.5 761.774 373.9C754.974 377.3 748.474 379 742.274 379C726.874 379 713.574 372 702.374 358C691.374 344 685.874 326.3 685.874 304.9ZM778.274 265.6C772.274 261.2 766.074 259 759.674 259C750.674 259 743.574 263 738.374 271C733.174 278.8 730.574 289.2 730.574 302.2C730.574 316.6 733.174 328.5 738.374 337.9C743.574 347.1 749.974 351.7 757.574 351.7C766.374 351.7 773.474 348.7 778.874 342.7C778.474 301.5 778.274 275.8 778.274 265.6ZM966.057 226.6C962.857 220.8 956.957 215.8 948.357 211.6C939.757 207.2 931.457 205 923.457 205C916.857 205 911.457 206.8 907.257 210.4C903.257 213.8 901.257 219.1 901.257 226.3C901.257 232.7 903.557 238.1 908.157 242.5C912.957 246.9 918.757 250.2 925.557 252.4C932.557 254.4 940.157 257 948.357 260.2C956.557 263.4 964.057 266.8 970.857 270.4C977.857 274 983.657 279.6 988.257 287.2C993.057 294.8 995.457 304 995.457 314.8C995.457 326.6 993.157 336.8 988.557 345.4C984.157 354 978.057 360.7 970.257 365.5C962.457 370.1 954.057 373.5 945.057 375.7C936.257 377.9 926.757 379 916.557 379C898.157 379 882.257 376.4 868.857 371.2C855.657 366 849.057 359.2 849.057 350.8C849.057 344.6 850.757 339.6 854.157 335.8C857.557 332 863.357 327.9 871.557 323.5C876.557 330.5 884.057 336.4 894.057 341.2C904.057 345.8 913.757 348.1 923.157 348.1C931.157 348.1 937.657 346.2 942.657 342.4C947.657 338.6 950.157 332.7 950.157 324.7C950.157 317.1 946.857 311 940.257 306.4C933.857 301.8 926.057 298.1 916.857 295.3C907.657 292.5 898.457 289.2 889.257 285.4C880.057 281.4 872.157 274.9 865.557 265.9C859.157 256.9 855.957 245.3 855.957 231.1C855.957 220.9 858.157 212 862.557 204.4C866.957 196.8 872.857 190.9 880.257 186.7C887.857 182.3 896.057 179.1 904.857 177.1C913.857 175.1 923.557 174.1 933.957 174.1C950.357 174.1 964.457 176.5 976.257 181.3C988.057 186.1 993.957 192.8 993.957 201.4C993.957 206.6 991.457 211.5 986.457 216.1C981.657 220.7 974.857 224.2 966.057 226.6ZM1040.42 153.1C1048.02 153.1 1053.92 154.4 1058.12 157C1062.32 159.6 1064.42 164.7 1064.42 172.3C1064.42 173.5 1064.02 182.3 1063.22 198.7C1062.62 215.1 1062.32 227.4 1062.32 235.6V248.8C1074.92 236.8 1089.22 230.8 1105.22 230.8C1118.82 230.8 1130.02 234.7 1138.82 242.5C1147.62 250.3 1152.02 261.4 1152.02 275.8C1152.02 276.2 1151.82 283.4 1151.42 297.4C1151.22 311.4 1151.12 322 1151.12 329.2C1151.12 346.4 1152.82 361 1156.22 373C1147.62 375.6 1138.92 376.9 1130.12 376.9C1114.12 376.9 1106.12 370.8 1106.12 358.6C1106.12 351.4 1106.42 338.2 1107.02 319C1107.62 299.6 1107.92 287.9 1107.92 283.9C1107.92 275.7 1106.22 269.6 1102.82 265.6C1099.62 261.4 1095.42 259.3 1090.22 259.3C1081.82 259.3 1072.52 264.2 1062.32 274C1062.72 299.6 1062.92 318.1 1062.92 329.5C1062.92 347.1 1063.42 362.5 1064.42 375.7C1057.82 376.3 1051.92 376.6 1046.72 376.6C1026.72 376.6 1016.72 371.8 1016.72 362.2C1016.72 361.4 1016.92 354.5 1017.32 341.5C1017.92 328.3 1018.22 314.6 1018.22 300.4V227.2C1018.22 198.6 1017.52 175.2 1016.12 157C1023.72 154.4 1031.82 153.1 1040.42 153.1ZM1206.3 281.8C1188.7 278.6 1179.9 271.1 1179.9 259.3C1179.9 251.3 1185.6 244.5 1197 238.9C1208.6 233.3 1222.5 230.5 1238.7 230.5C1259.7 230.5 1275.2 234.5 1285.2 242.5C1295.2 250.5 1300.2 263.8 1300.2 282.4C1300.2 284 1300.1 289.9 1299.9 300.1C1299.7 310.3 1299.6 317.9 1299.6 322.9C1299.6 345.9 1301.5 363.1 1305.3 374.5C1296.5 376.9 1288.7 378.1 1281.9 378.1C1267.5 378.1 1259.1 372.3 1256.7 360.7C1251.9 366.3 1245.7 370.8 1238.1 374.2C1230.7 377.4 1223.2 379 1215.6 379C1204.6 379 1195.3 375.5 1187.7 368.5C1180.3 361.3 1176.6 350.7 1176.6 336.7C1176.6 325.5 1178.8 317.3 1183.2 312.1C1187.8 306.9 1194 303 1201.8 300.4C1217 295.6 1235 292.6 1255.8 291.4C1255.8 279.2 1254.4 270.7 1251.6 265.9C1249 260.9 1243.4 258.4 1234.8 258.4C1229.8 258.4 1224.4 260.5 1218.6 264.7C1213 268.9 1208.9 274.6 1206.3 281.8ZM1255.5 313C1249.5 314 1244.9 314.9 1241.7 315.7C1238.5 316.5 1235 317.8 1231.2 319.6C1227.6 321.2 1225 323.4 1223.4 326.2C1222 328.8 1221.3 332.1 1221.3 336.1C1221.3 341.1 1222.5 344.9 1224.9 347.5C1227.3 349.9 1230.3 351.1 1233.9 351.1C1242.3 351.1 1249.3 348.6 1254.9 343.6C1254.7 341.8 1254.6 338.8 1254.6 334.6C1254.6 327.4 1254.9 320.2 1255.5 313ZM1352.14 232.6C1359.74 232.6 1365.64 233.9 1369.84 236.5C1374.04 239.1 1376.14 244.2 1376.14 251.8V255.7C1381.54 249.3 1387.94 243.5 1395.34 238.3C1402.94 233.1 1410.44 230.5 1417.84 230.5C1423.64 230.5 1428.14 231.9 1431.34 234.7C1434.54 237.3 1436.14 240.8 1436.14 245.2C1436.14 253.4 1432.54 261.4 1425.34 269.2C1418.34 264.8 1411.84 262.6 1405.84 262.6C1397.04 262.6 1386.74 268.7 1374.94 280.9C1374.34 292.7 1374.04 304.1 1374.04 315.1C1374.04 343.5 1375.74 362.8 1379.14 373C1370.74 375.6 1362.44 376.9 1354.24 376.9C1344.84 376.9 1338.24 375.3 1334.44 372.1C1330.84 368.7 1329.04 363.8 1329.04 357.4C1329.04 354.2 1329.14 346.7 1329.34 334.9C1329.74 323.1 1329.94 313.7 1329.94 306.7C1329.94 278.1 1329.24 254.7 1327.84 236.5C1335.44 233.9 1343.54 232.6 1352.14 232.6ZM1522.02 230.5C1536.82 230.5 1549.62 234.2 1560.42 241.6C1571.22 249 1576.62 260 1576.62 274.6C1576.62 304.2 1555.42 319 1513.02 319C1509.22 319 1502.32 318.8 1492.32 318.4C1492.32 329.8 1495.12 338.1 1500.72 343.3C1506.52 348.5 1513.62 351.1 1522.02 351.1C1536.82 351.1 1548.32 346.3 1556.52 336.7C1561.12 338.9 1564.82 341.9 1567.62 345.7C1570.62 349.3 1572.12 353 1572.12 356.8C1572.12 362.8 1568.52 367.6 1561.32 371.2C1554.32 374.8 1547.42 377 1540.62 377.8C1534.02 378.6 1527.62 379 1521.42 379C1499.42 379 1481.42 373 1467.42 361C1453.42 348.8 1446.42 330.3 1446.42 305.5C1446.42 289.1 1450.22 275.1 1457.82 263.5C1465.62 251.7 1475.02 243.3 1486.02 238.3C1497.22 233.1 1509.22 230.5 1522.02 230.5ZM1519.62 259C1512.42 259 1506.12 262.3 1500.72 268.9C1495.32 275.3 1492.52 284.8 1492.32 297.4C1497.92 297 1501.82 296.7 1504.02 296.5C1506.42 296.1 1509.72 295.4 1513.92 294.4C1518.32 293.4 1521.42 292.1 1523.22 290.5C1525.22 288.7 1527.02 286.3 1528.62 283.3C1530.22 280.1 1531.02 276.2 1531.02 271.6C1531.02 268.4 1529.92 265.5 1527.72 262.9C1525.52 260.3 1522.82 259 1519.62 259Z" fill="#2B8490"/>
<circle cx="173" cy="331" r="70" fill="white"/>
<path d="M173 261C134.34 261 103 292.34 103 331C103 369.66 134.34 401 173 401C211.66 401 243 369.66 243 331C243 292.34 211.66 261 173 261ZM197.642 334.096L163.553 357.303C162.406 358.083 160.921 358.166 159.694 357.517C158.467 356.868 157.7 355.594 157.7 354.206V307.794C157.7 306.406 158.467 305.132 159.694 304.483C160.921 303.834 162.406 303.916 163.553 304.697L197.642 327.904C198.667 328.601 199.28 329.76 199.28 331C199.28 332.24 198.667 333.399 197.642 334.096Z" fill="#2B8490"/>
</svg>
